<svg width="26" height="25" viewBox="0 0 26 25" fill="none" xmlns="http://www.w3.org/2000/svg">
<path d="M24.375 4.47461H17.875V2.90039C17.875 2.24023 17.638 1.67318 17.1641 1.19922C16.6901 0.708333 16.1146 0.462891 15.4375 0.462891H10.5625C9.88542 0.462891 9.3099 0.708333 8.83594 1.19922C8.36198 1.67318 8.125 2.24023 8.125 2.90039V4.47461H1.625C1.1849 4.47461 0.804036 4.63542 0.482422 4.95703C0.160807 5.27865 0 5.65951 0 6.09961V11.8125V13.4375V23.1621C0 23.6022 0.160807 23.9831 0.482422 24.3047C0.804036 24.6263 1.1849 24.7871 1.625 24.7871H24.375C24.8151 24.7871 25.196 24.6263 25.5176 24.3047C25.8392 23.9831 26 23.6022 26 23.1621V6.09961C26 5.65951 25.8392 5.27865 25.5176 4.95703C25.196 4.63542 24.8151 4.47461 24.375 4.47461ZM9.75 2.90039C9.75 2.68034 9.82617 2.49414 9.97852 2.3418C10.1478 2.17253 10.3424 2.08789 10.5625 2.08789H15.4375C15.6745 2.08789 15.8691 2.17253 16.0215 2.3418C16.1738 2.49414 16.25 2.68034 16.25 2.90039V4.47461H9.75V2.90039ZM1.625 6.09961H24.375V11.8125H15.4375V10.9746C15.4375 10.5345 15.2767 10.1536 14.9551 9.83203C14.6335 9.51042 14.2526 9.34961 13.8125 9.34961H12.1875C11.7305 9.34961 11.3411 9.51042 11.0195 9.83203C10.7148 10.1536 10.5625 10.5345 10.5625 10.9746V11.8125H1.625V6.09961ZM13.8125 15.0625H12.1875V10.9746H13.8125V15.0625ZM1.625 23.1621V13.4375H10.5625V15.0625C10.5625 15.5195 10.7148 15.9089 11.0195 16.2305C11.3411 16.5352 11.7305 16.6875 12.1875 16.6875H13.8125C14.2526 16.6875 14.6335 16.5352 14.9551 16.2305C15.2767 15.9089 15.4375 15.5195 15.4375 15.0625V13.4375H24.375V23.1621H1.625Z" fill="#50E3C2"/>
</svg>
