<svg width="24" height="27" viewBox="0 0 24 27" fill="none" xmlns="http://www.w3.org/2000/svg">
<path d="M16.2656 3.03711C15.25 3.03711 14.3783 2.91016 13.6504 2.65625C12.9395 2.40234 12.2285 2.12305 11.5176 1.81836C10.8066 1.51367 10.028 1.23438 9.18164 0.980469C8.33529 0.726562 7.26888 0.599609 5.98242 0.599609C4.32357 0.599609 3.01172 1.02279 2.04688 1.86914C1.09896 2.69857 0.625 3.11328 0.625 3.11328V25.8379C0.625 26.0579 0.701172 26.2441 0.853516 26.3965C1.02279 26.5658 1.21745 26.6504 1.4375 26.6504C1.65755 26.6504 1.84375 26.5658 1.99609 26.3965C2.16536 26.2441 2.25 26.0579 2.25 25.8379V15.4785C2.67318 15.1908 3.18099 14.9453 3.77344 14.7422C4.36589 14.5221 5.03451 14.4121 5.7793 14.4121C7.06576 14.4121 8.14909 14.5391 9.0293 14.793C9.92643 15.0469 10.7559 15.3262 11.5176 15.6309C12.2793 15.9355 13.041 16.2148 13.8027 16.4688C14.5645 16.7227 15.4531 16.8496 16.4688 16.8496C17.4844 16.8496 18.4154 16.7227 19.2617 16.4688C20.1081 16.2148 20.8359 15.9355 21.4453 15.6309C22.0547 15.3262 22.5286 15.0469 22.8672 14.793C23.2057 14.5391 23.375 14.4121 23.375 14.4121V0.599609C23.375 0.599609 23.1973 0.726562 22.8418 0.980469C22.4863 1.23438 21.987 1.51367 21.3438 1.81836C20.7174 2.12305 19.9642 2.40234 19.084 2.65625C18.2207 2.91016 17.2812 3.03711 16.2656 3.03711ZM21.75 13.5996C21.293 13.8874 20.599 14.2344 19.668 14.6406C18.737 15.0299 17.6706 15.2246 16.4688 15.2246C15.6732 15.2246 14.9707 15.1315 14.3613 14.9453C13.752 14.7591 13.1003 14.5221 12.4062 14.2344C11.5599 13.8958 10.6204 13.5742 9.58789 13.2695C8.55534 12.9479 7.28581 12.7871 5.7793 12.7871C5.08529 12.7871 4.44206 12.8717 3.84961 13.041C3.25716 13.1934 2.72396 13.3796 2.25 13.5996V3.77344C2.55469 3.5026 3.02865 3.18099 3.67188 2.80859C4.3151 2.41927 5.08529 2.22461 5.98242 2.22461C7.16732 2.22461 8.14062 2.35156 8.90234 2.60547C9.68099 2.84245 10.4258 3.11328 11.1367 3.41797C11.8477 3.72266 12.6009 4.01042 13.3965 4.28125C14.1921 4.53516 15.1484 4.66211 16.2656 4.66211C17.349 4.66211 18.3561 4.53516 19.2871 4.28125C20.2181 4.02734 21.0391 3.73958 21.75 3.41797V13.5996Z" fill="#F56BAA"/>
</svg>
