<svg width="26" height="27" viewBox="0 0 26 27" fill="none" xmlns="http://www.w3.org/2000/svg">
<path d="M18.9414 21.8262L13.8379 19.0078C14.7858 18.2461 15.4206 17.2474 15.7422 16.0117C16.0807 14.776 16.25 13.7435 16.25 12.9141V9.48633C16.25 8.91081 16.0723 8.34375 15.7168 7.78516C15.3783 7.20964 14.9212 6.69336 14.3457 6.23633C13.7871 5.7793 13.1439 5.4069 12.416 5.11914C11.6882 4.83138 10.9434 4.6875 10.1816 4.6875C9.43685 4.6875 8.69206 4.83138 7.94727 5.11914C7.2194 5.4069 6.56771 5.7793 5.99219 6.23633C5.41667 6.69336 4.95117 7.20964 4.5957 7.78516C4.24023 8.34375 4.0625 8.91081 4.0625 9.48633V12.9141C4.0625 13.6589 4.2487 14.666 4.62109 15.9355C4.99349 17.2051 5.66211 18.2207 6.62695 18.9824L1.37109 21.8262C1.37109 21.8262 1.14258 21.9616 0.685547 22.2324C0.228516 22.5033 0 22.8249 0 23.1973V25.2539C0 25.6432 0.135417 25.9648 0.40625 26.2188C0.677083 26.4896 0.998698 26.625 1.37109 26.625H18.9414C19.3138 26.625 19.6354 26.4896 19.9062 26.2188C20.1771 25.9648 20.3125 25.6432 20.3125 25.2539V23.1973C20.3125 22.791 20.084 22.4609 19.627 22.207C19.1699 21.9531 18.9414 21.8262 18.9414 21.8262ZM18.6875 25H1.625V23.5527C1.67578 23.5189 1.73503 23.4766 1.80273 23.4258C1.88737 23.375 1.96354 23.3411 2.03125 23.3242C2.04818 23.3073 2.0651 23.2988 2.08203 23.2988C2.09896 23.2819 2.11589 23.2734 2.13281 23.2734L7.38867 20.4043C7.62565 20.2858 7.82031 20.1165 7.97266 19.8965C8.125 19.6595 8.20964 19.4056 8.22656 19.1348C8.26042 18.8639 8.2181 18.6016 8.09961 18.3477C7.99805 18.0938 7.8457 17.8822 7.64258 17.7129C6.94857 17.1712 6.44922 16.401 6.14453 15.4023C5.83984 14.3867 5.6875 13.5573 5.6875 12.9141V9.48633C5.6875 8.89388 6.14453 8.2168 7.05859 7.45508C7.98958 6.69336 9.0306 6.3125 10.1816 6.3125C11.3665 6.3125 12.3991 6.69336 13.2793 7.45508C14.1764 8.2168 14.625 8.89388 14.625 9.48633V12.9141C14.625 13.5573 14.498 14.3867 14.2441 15.4023C13.9902 16.401 13.5163 17.1712 12.8223 17.7129C12.6022 17.8822 12.4329 18.0938 12.3145 18.3477C12.2129 18.6016 12.179 18.8639 12.2129 19.1348C12.2298 19.4056 12.3145 19.6595 12.4668 19.8965C12.6191 20.1165 12.8138 20.2943 13.0508 20.4297L18.1543 23.248C18.1882 23.265 18.2135 23.2819 18.2305 23.2988C18.2643 23.3158 18.2897 23.3242 18.3066 23.3242C18.3743 23.3581 18.4421 23.3919 18.5098 23.4258C18.5775 23.4596 18.6367 23.502 18.6875 23.5527V25ZM24.6289 17.7891L19.4492 14.9453C20.3971 14.2005 21.0488 13.2103 21.4043 11.9746C21.7598 10.722 21.9375 9.68945 21.9375 8.87695V5.44922C21.9375 4.8737 21.7598 4.29818 21.4043 3.72266C21.0488 3.14714 20.5833 2.63086 20.0078 2.17383C19.4323 1.7168 18.7721 1.3444 18.0273 1.05664C17.2995 0.751953 16.5547 0.599609 15.793 0.599609C14.8112 0.599609 13.8548 0.836589 12.9238 1.31055C11.9928 1.78451 11.2311 2.36849 10.6387 3.0625C10.9772 3.07943 11.3242 3.09635 11.6797 3.11328C12.0352 3.13021 12.3737 3.18945 12.6953 3.29102C13.1185 2.9694 13.5924 2.71549 14.1172 2.5293C14.6589 2.3431 15.2174 2.25 15.793 2.25C16.9779 2.25 18.0273 2.63086 18.9414 3.39258C19.8555 4.1543 20.3125 4.83984 20.3125 5.44922V8.87695C20.3125 9.50326 20.1686 10.3242 19.8809 11.3398C19.61 12.3385 19.1276 13.1172 18.4336 13.6758C18.2135 13.8451 18.0443 14.0566 17.9258 14.3105C17.8242 14.5645 17.7904 14.8268 17.8242 15.0977C17.8411 15.3685 17.9258 15.6224 18.0781 15.8594C18.2305 16.0794 18.4251 16.2572 18.6621 16.3926L23.8418 19.2109C23.8757 19.2279 23.901 19.2448 23.918 19.2617C23.9518 19.2617 23.9772 19.2702 23.9941 19.2871C24.0618 19.304 24.1296 19.3379 24.1973 19.3887C24.265 19.4225 24.3242 19.4564 24.375 19.4902V20.9375H21.0996C21.3366 21.1237 21.5059 21.3522 21.6074 21.623C21.7259 21.8939 21.8359 22.207 21.9375 22.5625H24.6289C25.0013 22.5625 25.3229 22.4355 25.5938 22.1816C25.8646 21.9108 26 21.5807 26 21.1914V19.1602C26 18.7539 25.7715 18.4238 25.3145 18.1699C24.8574 17.916 24.6289 17.7891 24.6289 17.7891Z" fill="#9013FE"/>
</svg>
