<svg width="26" height="27" viewBox="0 0 26 27" fill="none" xmlns="http://www.w3.org/2000/svg">
<path d="M25.9746 24.5684L23.8418 11.7715C23.7572 10.9421 23.3848 10.2311 22.7246 9.63867C22.0645 9.04622 21.3197 8.75 20.4902 8.75H18.6875V6.5918C18.6875 5.76237 18.5436 4.98372 18.2559 4.25586C17.985 3.52799 17.5957 2.89323 17.0879 2.35156C16.597 1.8099 16.0046 1.38672 15.3105 1.08203C14.6165 0.760417 13.8548 0.599609 13.0254 0.599609C12.196 0.599609 11.4342 0.760417 10.7402 1.08203C10.0462 1.38672 9.44531 1.8099 8.9375 2.35156C8.42969 2.89323 8.0319 3.52799 7.74414 4.25586C7.45638 4.98372 7.3125 5.76237 7.3125 6.5918V8.75H5.35742C4.52799 8.75 3.7832 9.04622 3.12305 9.63867C2.46289 10.2311 2.09049 10.9251 2.00586 11.7207L0.0507812 24.543C0 24.8815 0.00846354 25.1777 0.0761719 25.4316C0.14388 25.7025 0.26237 25.931 0.431641 26.1172C0.583984 26.2865 0.770182 26.4134 0.990234 26.498C1.22721 26.5996 1.49805 26.6504 1.80273 26.6504H23.9688C24.3919 26.6504 24.7305 26.5827 24.9844 26.4473C25.2383 26.3118 25.4245 26.1764 25.543 26.041C25.6615 25.9056 25.7715 25.7194 25.873 25.4824C25.9746 25.2454 26.0085 24.9408 25.9746 24.5684ZM8.9375 6.5918C8.9375 5.38997 9.31836 4.36589 10.0801 3.51953C10.8418 2.65625 11.8236 2.22461 13.0254 2.22461C14.2272 2.22461 15.2005 2.65625 15.9453 3.51953C16.6901 4.36589 17.0625 5.38997 17.0625 6.5918V8.75H8.9375V6.5918ZM24.0449 25L1.9043 25.0254C1.83659 25.0254 1.76888 25.0085 1.70117 24.9746C1.65039 24.9238 1.63346 24.8477 1.65039 24.7461L3.60547 11.9492C3.65625 11.526 3.85091 11.1621 4.18945 10.8574C4.54492 10.5358 4.93424 10.375 5.35742 10.375H7.3125V12.2285C7.07552 12.3809 6.88086 12.584 6.72852 12.8379C6.57617 13.0749 6.5 13.3372 6.5 13.625C6.5 14.082 6.65234 14.4714 6.95703 14.793C7.27865 15.0977 7.66797 15.25 8.125 15.25C8.58203 15.25 8.96289 15.0977 9.26758 14.793C9.58919 14.4714 9.75 14.082 9.75 13.625C9.75 13.3372 9.67383 13.0749 9.52148 12.8379C9.36914 12.584 9.17448 12.3809 8.9375 12.2285V10.375H17.0625V12.2285C16.8255 12.3809 16.6309 12.584 16.4785 12.8379C16.3262 13.0749 16.25 13.3372 16.25 13.625C16.25 14.082 16.4023 14.4714 16.707 14.793C17.0286 15.0977 17.418 15.25 17.875 15.25C18.332 15.25 18.7129 15.0977 19.0176 14.793C19.3392 14.4714 19.5 14.082 19.5 13.625C19.5 13.3372 19.4238 13.0749 19.2715 12.8379C19.1191 12.584 18.9245 12.3809 18.6875 12.2285V10.375H20.4902C20.9134 10.375 21.2943 10.5358 21.6328 10.8574C21.9883 11.1621 22.1914 11.543 22.2422 12L24.3496 24.7715C24.3665 24.8223 24.3496 24.873 24.2988 24.9238C24.248 24.9746 24.1634 25 24.0449 25Z" fill="#7CA7FF"/>
</svg>
