<svg width="18" height="18" viewBox="0 0 20 21" fill="currentColor" xmlns="http://www.w3.org/2000/svg">
<path d="M18.5938 0.289062L10.332 2.51562C10.2279 2.54167 10.0781 2.55469 9.88281 2.55469C9.70052 2.55469 9.55729 2.54167 9.45312 2.51562L1.40625 0.289062C1.04167 0.184896 0.716146 0.24349 0.429688 0.464844C0.143229 0.686198 0 0.979167 0 1.34375V16.5391C0 16.8516 0.104167 17.1445 0.3125 17.418C0.520833 17.6784 0.77474 17.8542 1.07422 17.9453L9.12109 20.1719C9.22526 20.1979 9.34245 20.2174 9.47266 20.2305C9.61589 20.2565 9.75911 20.2695 9.90234 20.2695C10.0065 20.2695 10.1237 20.263 10.2539 20.25C10.3971 20.237 10.5339 20.2109 10.6641 20.1719L18.9258 17.9258C19.2253 17.8477 19.4792 17.6784 19.6875 17.418C19.8958 17.1445 20 16.8516 20 16.5391V1.34375C20 0.979167 19.8568 0.686198 19.5703 0.464844C19.2839 0.24349 18.9583 0.184896 18.5938 0.289062ZM9.375 18.9414L1.38672 16.7344C1.36068 16.7214 1.32812 16.6953 1.28906 16.6562C1.26302 16.6172 1.25 16.5781 1.25 16.5391V1.53906L9.12109 3.72656C9.16016 3.72656 9.19922 3.73307 9.23828 3.74609C9.29036 3.75911 9.33594 3.76562 9.375 3.76562V18.9414ZM18.75 16.5391C18.75 16.5781 18.7305 16.6172 18.6914 16.6562C18.6523 16.6953 18.6198 16.7214 18.5938 16.7344L10.625 18.8828V3.72656C10.638 3.72656 10.651 3.72656 10.6641 3.72656L18.75 1.53906V16.5391ZM12.5391 7.39844C12.5651 7.39844 12.5911 7.39844 12.6172 7.39844C12.6562 7.39844 12.6888 7.39193 12.7148 7.37891L17.0898 6.14844C17.2461 6.09635 17.3633 5.9987 17.4414 5.85547C17.5326 5.69922 17.5586 5.54297 17.5195 5.38672C17.4674 5.21745 17.3633 5.09375 17.207 5.01562C17.0638 4.92448 16.9076 4.89844 16.7383 4.9375L12.3633 6.16797C12.207 6.22005 12.0833 6.32422 11.9922 6.48047C11.9141 6.6237 11.8945 6.77995 11.9336 6.94922C11.9727 7.09245 12.0508 7.20312 12.168 7.28125C12.2852 7.35938 12.4089 7.39844 12.5391 7.39844ZM12.5391 11.1484C12.5651 11.1484 12.5911 11.1484 12.6172 11.1484C12.6562 11.1484 12.6888 11.1419 12.7148 11.1289L17.0898 9.89844C17.2461 9.84635 17.3633 9.7487 17.4414 9.60547C17.5326 9.44922 17.5586 9.29297 17.5195 9.13672C17.4674 8.96745 17.3633 8.84375 17.207 8.76562C17.0638 8.67448 16.9076 8.64844 16.7383 8.6875L12.3633 9.91797C12.207 9.97005 12.0833 10.0742 11.9922 10.2305C11.9141 10.3737 11.8945 10.5299 11.9336 10.6992C11.9727 10.8424 12.0508 10.9531 12.168 11.0312C12.2852 11.1094 12.4089 11.1484 12.5391 11.1484ZM12.5391 14.8984C12.5651 14.8984 12.5911 14.8984 12.6172 14.8984C12.6562 14.8984 12.6888 14.8919 12.7148 14.8789L17.0898 13.6484C17.2461 13.5964 17.3633 13.4987 17.4414 13.3555C17.5326 13.1992 17.5586 13.043 17.5195 12.8867C17.4674 12.7174 17.3633 12.5938 17.207 12.5156C17.0638 12.4245 16.9076 12.3984 16.7383 12.4375L12.3633 13.668C12.207 13.7201 12.0833 13.8242 11.9922 13.9805C11.9141 14.1237 11.8945 14.2799 11.9336 14.4492C11.9727 14.5924 12.0508 14.7031 12.168 14.7812C12.2852 14.8594 12.4089 14.8984 12.5391 14.8984ZM7.71484 6.16797L3.33984 4.9375C3.17057 4.89844 3.00781 4.92448 2.85156 5.01562C2.70833 5.09375 2.61068 5.21745 2.55859 5.38672C2.51953 5.54297 2.53906 5.69922 2.61719 5.85547C2.70833 5.9987 2.83203 6.09635 2.98828 6.14844L7.36328 7.37891C7.38932 7.39193 7.41536 7.39844 7.44141 7.39844C7.48047 7.39844 7.51302 7.39844 7.53906 7.39844C7.66927 7.39844 7.79297 7.35938 7.91016 7.28125C8.02734 7.20312 8.10547 7.09245 8.14453 6.94922C8.18359 6.77995 8.15755 6.6237 8.06641 6.48047C7.98828 6.32422 7.87109 6.22005 7.71484 6.16797ZM7.71484 9.91797L3.33984 8.6875C3.17057 8.64844 3.00781 8.67448 2.85156 8.76562C2.70833 8.84375 2.61068 8.96745 2.55859 9.13672C2.51953 9.29297 2.53906 9.44922 2.61719 9.60547C2.70833 9.7487 2.83203 9.84635 2.98828 9.89844L7.36328 11.1289C7.38932 11.1419 7.41536 11.1484 7.44141 11.1484C7.48047 11.1484 7.51302 11.1484 7.53906 11.1484C7.66927 11.1484 7.79297 11.1094 7.91016 11.0312C8.02734 10.9531 8.10547 10.8424 8.14453 10.6992C8.18359 10.5299 8.15755 10.3737 8.06641 10.2305C7.98828 10.0742 7.87109 9.97005 7.71484 9.91797ZM7.71484 13.668L3.33984 12.4375C3.17057 12.3984 3.00781 12.4245 2.85156 12.5156C2.70833 12.5938 2.61068 12.7174 2.55859 12.8867C2.51953 13.043 2.53906 13.1992 2.61719 13.3555C2.70833 13.4987 2.83203 13.5964 2.98828 13.6484L7.36328 14.8789C7.38932 14.8919 7.41536 14.8984 7.44141 14.8984C7.48047 14.8984 7.51302 14.8984 7.53906 14.8984C7.66927 14.8984 7.79297 14.8594 7.91016 14.7812C8.02734 14.7031 8.10547 14.5924 8.14453 14.4492C8.18359 14.2799 8.15755 14.1237 8.06641 13.9805C7.98828 13.8242 7.87109 13.7201 7.71484 13.668Z" fill="currentColor"/>
</svg>
