<svg width="18" height="18" viewBox="0 0 18 18" fill="none" xmlns="http://www.w3.org/2000/svg">
<path d="M16.875 3.48242H12.375V2.39258C12.375 1.93555 12.2109 1.54297 11.8828 1.21484C11.5547 0.875 11.1562 0.705078 10.6875 0.705078H7.3125C6.84375 0.705078 6.44531 0.875 6.11719 1.21484C5.78906 1.54297 5.625 1.93555 5.625 2.39258V3.48242H1.125C0.820312 3.48242 0.556641 3.59375 0.333984 3.81641C0.111328 4.03906 0 4.30273 0 4.60742V8.5625V9.6875V16.4199C0 16.7246 0.111328 16.9883 0.333984 17.2109C0.556641 17.4336 0.820312 17.5449 1.125 17.5449H16.875C17.1797 17.5449 17.4434 17.4336 17.666 17.2109C17.8887 16.9883 18 16.7246 18 16.4199V4.60742C18 4.30273 17.8887 4.03906 17.666 3.81641C17.4434 3.59375 17.1797 3.48242 16.875 3.48242ZM6.75 2.39258C6.75 2.24023 6.80273 2.11133 6.9082 2.00586C7.02539 1.88867 7.16016 1.83008 7.3125 1.83008H10.6875C10.8516 1.83008 10.9863 1.88867 11.0918 2.00586C11.1973 2.11133 11.25 2.24023 11.25 2.39258V3.48242H6.75V2.39258ZM1.125 4.60742H16.875V8.5625H10.6875V7.98242C10.6875 7.67773 10.5762 7.41406 10.3535 7.19141C10.1309 6.96875 9.86719 6.85742 9.5625 6.85742H8.4375C8.12109 6.85742 7.85156 6.96875 7.62891 7.19141C7.41797 7.41406 7.3125 7.67773 7.3125 7.98242V8.5625H1.125V4.60742ZM9.5625 10.8125H8.4375V7.98242H9.5625V10.8125ZM1.125 16.4199V9.6875H7.3125V10.8125C7.3125 11.1289 7.41797 11.3984 7.62891 11.6211C7.85156 11.832 8.12109 11.9375 8.4375 11.9375H9.5625C9.86719 11.9375 10.1309 11.832 10.3535 11.6211C10.5762 11.3984 10.6875 11.1289 10.6875 10.8125V9.6875H16.875V16.4199H1.125Z" fill="#50E3C2"/>
</svg>
