<svg width="28" height="28" viewBox="0 0 28 28" fill="none" xmlns="http://www.w3.org/2000/svg">
<path fill-rule="evenodd" clip-rule="evenodd" d="M5.208 2.80002H27.3C27.6866 2.80002 28 3.11342 28 3.50002V4.20002C27.9899 5.36185 27.6762 6.50085 27.09 7.50402L23.8 13.286C23.0881 14.5656 21.75 15.3706 20.286 15.4H11.564C11.2614 15.3935 10.9606 15.3512 10.668 15.274L9.268 18.2H24.5C24.8866 18.2 25.2 18.5134 25.2 18.9V20.3C25.2 20.6866 24.8866 21 24.5 21H7C6.61686 21.0089 6.25856 20.811 6.062 20.482L5.754 19.95C5.59213 19.6385 5.59213 19.2676 5.754 18.956L8.358 13.776C8.2158 13.6259 8.08915 13.4617 7.98 13.286L1.988 2.80002H0.7C0.313401 2.80002 0 2.48662 0 2.10002V0.700022C0 0.313423 0.313401 2.21646e-05 0.7 2.21646e-05H1.988C2.99232 -0.00396505 3.92185 0.530246 4.424 1.40002L5.208 2.80002ZM8.40089 22.4001C6.8545 22.4001 5.60089 23.6537 5.60089 25.2001C5.60089 26.7465 6.8545 28.0001 8.40089 28.0001C9.94729 28.0001 11.2009 26.7465 11.2009 25.2001C11.2009 23.6537 9.94729 22.4001 8.40089 22.4001ZM25.1991 25.2001C25.1991 26.7465 23.9455 28.0001 22.3991 28.0001C20.8527 28.0001 19.5991 26.7465 19.5991 25.2001C19.5991 23.6537 20.8527 22.4001 22.3991 22.4001C23.9455 22.4001 25.1991 23.6537 25.1991 25.2001Z" fill="#FFCC00"/>
</svg>
