<svg width="13" height="11" viewBox="0 0 13 11" fill="none" xmlns="http://www.w3.org/2000/svg">
<path d="M12.8869 1.39722L4.77899 10.8679C4.70718 10.9524 4.60942 11 4.50745 11C4.40547 11 4.30772 10.9524 4.23591 10.8679L0.113127 6.05213C0.0407252 5.96825 0 5.85407 0 5.73495C0 5.61584 0.0407252 5.50166 0.113127 5.41777L0.648554 4.79235C0.720365 4.70778 0.818117 4.66021 0.920092 4.66021C1.02207 4.66021 1.11982 4.70778 1.19163 4.79235L4.50362 8.66102L11.8084 0.128513C11.9597 -0.0428375 12.2001 -0.0428375 12.3514 0.128513L12.8869 0.762867C12.9593 0.846747 13 0.960929 13 1.08004C13 1.19916 12.9593 1.31334 12.8869 1.39722Z" fill="#7F8FA4"/>
</svg>
