<svg width="138" height="83" viewBox="0 0 138 83" fill="none" xmlns="http://www.w3.org/2000/svg">
<path fill-rule="evenodd" clip-rule="evenodd" d="M132.68 0.969685L137.072 5.75618C137.666 6.38909 138 7.25065 138 8.14942C138 9.04819 137.666 9.90975 137.072 10.5427L70.5685 82.0029C69.9795 82.6411 69.1777 83 68.3412 83C67.5048 83 66.703 82.6411 66.114 82.0029L32.2975 45.6661C31.7037 45.0331 31.3696 44.1716 31.3696 43.2728C31.3696 42.374 31.7037 41.5125 32.2975 40.8796L36.6893 36.1605C37.2783 35.5224 38.0801 35.1634 38.9165 35.1634C39.753 35.1634 40.5548 35.5224 41.1438 36.1605L52.6878 48.8346L96.6053 1.30676C97.8463 0.0138483 99.8187 0.0138483 101.06 1.30676L105.452 6.09325C106.045 6.72617 106.379 7.58772 106.379 8.4865C106.379 9.38527 106.045 10.2468 105.452 10.8797L61.534 58.0705L68.3099 65.3513L128.226 0.969685C129.467 -0.323228 131.439 -0.323228 132.68 0.969685ZM45.8492 74.8561L9.77414 36.1597C9.18513 35.5216 8.38333 35.1626 7.5469 35.1626C6.71047 35.1626 5.90867 35.5216 5.31966 36.1597L0.927908 40.8788C0.334042 41.5117 0 42.3732 0 43.272C0 44.1708 0.334042 45.0323 0.927908 45.6653L34.7444 82.0021C35.3334 82.6403 36.1352 82.9992 36.9716 82.9992C37.808 82.9992 38.6098 82.6403 39.1989 82.0021L45.8492 74.8561Z" fill="#0599CA"/>
</svg>