<svg width="17" height="20" viewBox="0 0 17 20" fill="none" xmlns="http://www.w3.org/2000/svg">
<path d="M5.32727 1V19M2.21818 1H13.6182C14.1679 1 14.6951 1.21071 15.0838 1.58579C15.4725 1.96086 15.6909 2.46957 15.6909 3V15C15.6909 15.5304 15.4725 16.0391 15.0838 16.4142C14.6951 16.7893 14.1679 17 13.6182 17H2.21818C1.94332 17 1.67972 16.8946 1.48536 16.7071C1.291 16.5196 1.18182 16.2652 1.18182 16V2C1.18182 1.73478 1.291 1.48043 1.48536 1.29289C1.67972 1.10536 1.94332 1 2.21818 1V1Z" stroke="currentColor" stroke-width="1.5" stroke-linecap="round" stroke-linejoin="round"/>
<path d="M9.47272 5H11.5455" stroke="currentColor" stroke-width="1.5" stroke-linecap="round" stroke-linejoin="round"/>
<path d="M9.47272 9H11.5455" stroke="currentColor" stroke-width="1.5" stroke-linecap="round" stroke-linejoin="round"/>
</svg>