<svg width="18" height="18" viewBox="0 0 32 44" fill="none" xmlns="http://www.w3.org/2000/svg">
<path d="M16 36C13.79 36 12 37.79 12 40C12 42.21 13.79 44 16 44C18.21 44 20 42.21 20 40C20 37.79 18.21 36 16 36ZM4 0C1.79 0 0 1.79 0 4C0 6.21 1.79 8 4 8C6.21 8 8 6.21 8 4C8 1.79 6.21 0 4 0ZM4 12C1.79 12 0 13.79 0 16C0 18.21 1.79 20 4 20C6.21 20 8 18.21 8 16C8 13.79 6.21 12 4 12ZM4 24C1.79 24 0 25.79 0 28C0 30.21 1.79 32 4 32C6.21 32 8 30.21 8 28C8 25.79 6.21 24 4 24ZM28 8C30.21 8 32 6.21 32 4C32 1.79 30.21 0 28 0C25.79 0 24 1.79 24 4C24 6.21 25.79 8 28 8ZM16 24C13.79 24 12 25.79 12 28C12 30.21 13.79 32 16 32C18.21 32 20 30.21 20 28C20 25.79 18.21 24 16 24ZM28 24C25.79 24 24 25.79 24 28C24 30.21 25.79 32 28 32C30.21 32 32 30.21 32 28C32 25.79 30.21 24 28 24ZM28 12C25.79 12 24 13.79 24 16C24 18.21 25.79 20 28 20C30.21 20 32 18.21 32 16C32 13.79 30.21 12 28 12ZM16 12C13.79 12 12 13.79 12 16C12 18.21 13.79 20 16 20C18.21 20 20 18.21 20 16C20 13.79 18.21 12 16 12ZM16 0C13.79 0 12 1.79 12 4C12 6.21 13.79 8 16 8C18.21 8 20 6.21 20 4C20 1.79 18.21 0 16 0Z" fill="currentColor"/>
</svg>