<svg width="18" height="18" viewBox="0 0 14 15" fill="none" xmlns="http://www.w3.org/2000/svg">
<path opacity="0.8" d="M7.944 11.464C8.56267 11.3467 9.05867 11.1227 9.432 10.792C9.83733 10.4187 10.04 9.944 10.04 9.368C10.04 8.61067 9.74133 8.00267 9.144 7.544C8.70667 7.224 8.06667 6.95733 7.224 6.744C6.57333 6.584 6.11467 6.39733 5.848 6.184C5.592 5.992 5.464 5.752 5.464 5.464C5.464 5.144 5.608 4.88267 5.896 4.68C6.184 4.46667 6.57333 4.36 7.064 4.36C8.01333 4.36 8.504 4.78133 8.536 5.624H9.848C9.82667 5.08 9.66133 4.616 9.352 4.232C9.02133 3.816 8.552 3.528 7.944 3.368V2.056H6.152V3.368C5.544 3.50667 5.05867 3.74667 4.696 4.088C4.29067 4.472 4.088 4.94133 4.088 5.496C4.088 6.14667 4.344 6.67467 4.856 7.08C5.304 7.432 5.976 7.71467 6.872 7.928C7.56533 8.088 8.05067 8.30133 8.328 8.568C8.552 8.78133 8.664 9.048 8.664 9.368C8.664 9.63467 8.56267 9.85867 8.36 10.04C8.08267 10.296 7.65067 10.424 7.064 10.424C6.488 10.424 6.05067 10.3013 5.752 10.056C5.47467 9.84267 5.32 9.54933 5.288 9.176H3.976C4.008 9.784 4.23733 10.2853 4.664 10.68C5.048 11.0427 5.544 11.2933 6.152 11.432V12.744H7.944V11.464ZM7 0.743999C8.216 0.743999 9.34133 1.048 10.376 1.656C11.3787 2.232 12.168 3.02133 12.744 4.024C13.352 5.05867 13.656 6.184 13.656 7.4C13.656 8.616 13.352 9.74133 12.744 10.776C12.168 11.7787 11.3787 12.568 10.376 13.144C9.34133 13.752 8.216 14.056 7 14.056C5.784 14.056 4.65867 13.752 3.624 13.144C2.62133 12.5573 1.832 11.7627 1.256 10.76C0.648 9.72533 0.344 8.60533 0.344 7.4C0.344 6.19467 0.648 5.07467 1.256 4.04C1.84267 3.03733 2.63733 2.24267 3.64 1.656C4.67467 1.048 5.79467 0.743999 7 0.743999Z" fill="currentColor"/>
</svg>