<svg width="17" height="16" viewBox="0 0 17 16" fill="none" xmlns="http://www.w3.org/2000/svg">
<g clip-path="url(#clip0)">
<path d="M13.1667 12C13.7855 12 14.379 11.7542 14.8166 11.3166C15.2542 10.879 15.5 10.2855 15.5 9.66665C15.5 9.04782 15.2542 8.45432 14.8166 8.01674C14.379 7.57915 13.7855 7.33332 13.1667 7.33332H12.5C12.5973 6.89996 12.5987 6.4536 12.5044 6.01972C12.41 5.58584 12.2215 5.17295 11.9498 4.80461C11.6781 4.43627 11.3285 4.1197 10.9209 3.87297C10.5132 3.62625 10.0556 3.4542 9.57407 3.36665C9.09255 3.27911 8.5966 3.27777 8.11451 3.36273C7.63242 3.44769 7.17365 3.61727 6.76438 3.8618C5.93784 4.35564 5.36312 5.12477 5.16666 5.99999C4.45596 5.97152 3.75702 6.18026 3.18951 6.59045C2.62199 7.00065 2.22121 7.5868 2.05577 8.24854C1.89034 8.91028 1.97055 9.60644 2.28266 10.2178C2.59477 10.8292 3.11938 11.3178 3.76666 11.6" stroke="#30c450" stroke-width="1.5" stroke-linecap="round" stroke-linejoin="round"/>
<path d="M8.5 8.66669V14.6667" stroke="#30c450" stroke-width="1.5" stroke-linecap="round" stroke-linejoin="round"/>
<path d="M6.5 12.6667L8.5 14.6667L10.5 12.6667" stroke="#30c450" stroke-width="1.5" stroke-linecap="round" stroke-linejoin="round"/>
</g>
<defs>
<clipPath id="clip0">
<rect width="16" height="16" fill="white" transform="translate(0.5)"/>
</clipPath>
</defs>
</svg>
