<svg width="28" height="28" viewBox="0 0 28 28" fill="none" xmlns="http://www.w3.org/2000/svg">
<path fill-rule="evenodd" clip-rule="evenodd" d="M24.8889 6.22222H4.66667C3.80756 6.22222 3.11111 5.52578 3.11111 4.66667C3.11111 3.80756 3.80756 3.11111 4.66667 3.11111H24.8889C24.8889 1.39289 23.496 0 21.7778 0H4.66667C2.08934 0 0 2.08934 0 4.66667V24.8889C0 26.6071 1.39289 28 3.11111 28H24.8889C26.6071 28 28 26.6071 28 24.8889V9.33333C28 7.61511 26.6071 6.22222 24.8889 6.22222ZM24.8898 21.7777H14.0009C13.1418 21.7777 12.4453 21.0812 12.4453 20.2221V13.9999C12.4453 13.1408 13.1418 12.4443 14.0009 12.4443H24.8898V21.7777ZM17.888 18.6668H16.3325C15.9029 18.6668 15.5547 18.3186 15.5547 17.889V16.3334C15.5547 15.9039 15.9029 15.5557 16.3325 15.5557H17.888C18.3176 15.5557 18.6658 15.9039 18.6658 16.3334V17.889C18.6658 18.3186 18.3176 18.6668 17.888 18.6668Z" fill="#49A0FF"/>
</svg>
