<svg width="10" height="10" viewBox="0 0 10 10" fill="none" xmlns="http://www.w3.org/2000/svg">
<path fill-rule="evenodd" clip-rule="evenodd" d="M9.39005 0.243894L9.75588 0.609823C9.91184 0.765639 9.99957 0.977032 9.99976 1.19753V1.6189C10.0025 1.84323 9.91459 2.05917 9.75588 2.21769L8.73045 3.22677C8.67841 3.27925 8.60757 3.30877 8.53368 3.30877C8.45978 3.30877 8.38894 3.27925 8.33691 3.22677L6.77936 1.64662C6.67373 1.53883 6.67373 1.36631 6.77936 1.25851L7.78262 0.243894C7.9411 0.0851397 8.15698 -0.00283502 8.38125 -5.82783e-05H8.8025C9.02294 0.000135832 9.23427 0.0878838 9.39005 0.243894ZM7.67748 4.2691C7.78311 4.16131 7.78311 3.98879 7.67748 3.881L6.09223 2.31748C6.04019 2.265 5.96935 2.23548 5.89545 2.23548C5.82156 2.23548 5.75072 2.265 5.69868 2.31748L1.2256 6.79179C1.11746 6.899 1.03255 7.02734 0.976174 7.16881L0.022803 9.57507C-0.0312031 9.69998 0.0134191 9.84563 0.128117 9.91882C0.206673 9.99728 0.324453 10.0213 0.427431 9.97981L2.83303 9.004C2.97446 8.94761 3.10277 8.86268 3.20994 8.7545L7.67748 4.2691Z" fill="#354052"/>
</svg>
