<svg width="18" height="19" viewBox="0 0 18 19" fill="none" xmlns="http://www.w3.org/2000/svg">
<path d="M2.8125 6.94531V0.6875C2.8125 0.535156 2.75391 0.40625 2.63672 0.300781C2.53125 0.183594 2.40234 0.125 2.25 0.125C2.09766 0.125 1.96289 0.183594 1.8457 0.300781C1.74023 0.40625 1.6875 0.535156 1.6875 0.6875V6.94531C1.20703 7.07422 0.802734 7.33789 0.474609 7.73633C0.158203 8.13477 0 8.59766 0 9.125C0 9.65234 0.158203 10.1152 0.474609 10.5137C0.802734 10.9121 1.20703 11.1758 1.6875 11.3047V17.5625C1.6875 17.7148 1.74023 17.8438 1.8457 17.9492C1.96289 18.0664 2.09766 18.125 2.25 18.125C2.40234 18.125 2.53125 18.0664 2.63672 17.9492C2.75391 17.8438 2.8125 17.7148 2.8125 17.5625V11.3047C3.30469 11.1758 3.70898 10.9121 4.02539 10.5137C4.3418 10.1152 4.5 9.65234 4.5 9.125C4.5 8.59766 4.3418 8.13477 4.02539 7.73633C3.70898 7.33789 3.30469 7.07422 2.8125 6.94531ZM2.25 10.25C1.93359 10.25 1.66406 10.1387 1.44141 9.91602C1.23047 9.69336 1.125 9.42969 1.125 9.125C1.125 8.82031 1.23047 8.55664 1.44141 8.33398C1.66406 8.11133 1.93359 8 2.25 8C2.56641 8 2.83008 8.11133 3.04102 8.33398C3.26367 8.55664 3.375 8.82031 3.375 9.125C3.375 9.42969 3.26367 9.69336 3.04102 9.91602C2.83008 10.1387 2.56641 10.25 2.25 10.25ZM9.5625 10.3203V0.6875C9.5625 0.535156 9.50391 0.40625 9.38672 0.300781C9.28125 0.183594 9.15234 0.125 9 0.125C8.84766 0.125 8.71289 0.183594 8.5957 0.300781C8.49023 0.40625 8.4375 0.535156 8.4375 0.6875V10.3203C7.95703 10.4492 7.55273 10.7129 7.22461 11.1113C6.9082 11.5098 6.75 11.9727 6.75 12.5C6.75 13.0273 6.9082 13.4902 7.22461 13.8887C7.55273 14.2871 7.95703 14.5508 8.4375 14.6797V17.5625C8.4375 17.7148 8.49023 17.8438 8.5957 17.9492C8.71289 18.0664 8.84766 18.125 9 18.125C9.15234 18.125 9.28125 18.0664 9.38672 17.9492C9.50391 17.8438 9.5625 17.7148 9.5625 17.5625V14.6797C10.0547 14.5508 10.459 14.2871 10.7754 13.8887C11.0918 13.4902 11.25 13.0273 11.25 12.5C11.25 11.9727 11.0918 11.5098 10.7754 11.1113C10.459 10.7129 10.0547 10.4492 9.5625 10.3203ZM9 13.625C8.68359 13.625 8.41406 13.5137 8.19141 13.291C7.98047 13.0684 7.875 12.8047 7.875 12.5C7.875 12.1953 7.98047 11.9316 8.19141 11.709C8.41406 11.4863 8.68359 11.375 9 11.375C9.31641 11.375 9.58008 11.4863 9.79102 11.709C10.0137 11.9316 10.125 12.1953 10.125 12.5C10.125 12.8047 10.0137 13.0684 9.79102 13.291C9.58008 13.5137 9.31641 13.625 9 13.625ZM16.3125 3.57031V0.6875C16.3125 0.535156 16.2539 0.40625 16.1367 0.300781C16.0312 0.183594 15.9023 0.125 15.75 0.125C15.5977 0.125 15.4629 0.183594 15.3457 0.300781C15.2402 0.40625 15.1875 0.535156 15.1875 0.6875V3.57031C14.707 3.69922 14.3027 3.96289 13.9746 4.36133C13.6582 4.75977 13.5 5.22266 13.5 5.75C13.5 6.27734 13.6582 6.74023 13.9746 7.13867C14.3027 7.53711 14.707 7.80078 15.1875 7.92969V17.5625C15.1875 17.7148 15.2402 17.8438 15.3457 17.9492C15.4629 18.0664 15.5977 18.125 15.75 18.125C15.9023 18.125 16.0312 18.0664 16.1367 17.9492C16.2539 17.8438 16.3125 17.7148 16.3125 17.5625V7.92969C16.8047 7.80078 17.209 7.53711 17.5254 7.13867C17.8418 6.74023 18 6.27734 18 5.75C18 5.22266 17.8418 4.75977 17.5254 4.36133C17.209 3.96289 16.8047 3.69922 16.3125 3.57031ZM15.75 6.875C15.4336 6.875 15.1641 6.76367 14.9414 6.54102C14.7305 6.31836 14.625 6.05469 14.625 5.75C14.625 5.44531 14.7305 5.18164 14.9414 4.95898C15.1641 4.73633 15.4336 4.625 15.75 4.625C16.0664 4.625 16.3301 4.73633 16.541 4.95898C16.7637 5.18164 16.875 5.44531 16.875 5.75C16.875 6.05469 16.7637 6.31836 16.541 6.54102C16.3301 6.76367 16.0664 6.875 15.75 6.875Z" fill="#50E3C2"/>
</svg>
