<svg width="19" height="20" viewBox="0 0 19 20" fill="none" xmlns="http://www.w3.org/2000/svg">
<path d="M15.6545 3H3.21818C2.07345 3 1.14545 3.89543 1.14545 5V17C1.14545 18.1046 2.07345 19 3.21818 19H15.6545C16.7993 19 17.7273 18.1046 17.7273 17V5C17.7273 3.89543 16.7993 3 15.6545 3Z" stroke="currentColor" stroke-width="1.5" stroke-linecap="round" stroke-linejoin="round"/>
<path d="M13.5818 1V5" stroke="currentColor" stroke-width="1.5" stroke-linecap="round" stroke-linejoin="round"/>
<path d="M5.29091 1V5" stroke="currentColor" stroke-width="1.5" stroke-linecap="round" stroke-linejoin="round"/>
<path d="M9.43637 8.35016L9.88897 9.69426L10.0609 10.2049H10.5998H11.9882L10.8882 10.976L10.429 11.298L10.608 11.8295L11.0425 13.1199L9.86689 12.2957L9.43637 11.9939L9.00584 12.2957L7.83024 13.1199L8.26474 11.8295L8.44372 11.298L7.98449 10.976L6.88452 10.2049H8.27297H8.8118L8.98376 9.69426L9.43637 8.35016Z" stroke="currentColor" stroke-width="1.5"/>
</svg>