<svg width="40" height="40" viewBox="0 0 40 40" fill="none" xmlns="http://www.w3.org/2000/svg">
<path d="M23.332 5V11.6667C23.332 12.1087 23.5076 12.5326 23.8202 12.8452C24.1327 13.1577 24.5567 13.3333 24.9987 13.3333H31.6654" stroke="#ADB0C2" stroke-width="1.5" stroke-linecap="round" stroke-linejoin="round"/>
<path d="M28.332 35H11.6654C10.7813 35 9.93346 34.6488 9.30834 34.0237C8.68322 33.3986 8.33203 32.5507 8.33203 31.6667V8.33333C8.33203 7.44928 8.68322 6.60143 9.30834 5.97631C9.93346 5.35119 10.7813 5 11.6654 5H23.332L31.6654 13.3333V31.6667C31.6654 32.5507 31.3142 33.3986 30.6891 34.0237C30.0639 34.6488 29.2161 35 28.332 35Z" stroke="#ADB0C2" stroke-width="1.5" stroke-linecap="round" stroke-linejoin="round"/>
<path d="M20 18.3333V28.3333" stroke="#ADB0C2" stroke-width="1.5" stroke-linecap="round" stroke-linejoin="round"/>
<path d="M15 23.3333L20 18.3333L25 23.3333" stroke="#ADB0C2" stroke-width="1.5" stroke-linecap="round" stroke-linejoin="round"/>
</svg>
