<svg width="14" height="14" viewBox="0 0 14 14" fill="none" xmlns="http://www.w3.org/2000/svg">
<path d="M5.83325 1.75V4.08333C5.83325 4.23804 5.77179 4.38642 5.6624 4.49581C5.553 4.60521 5.40463 4.66667 5.24992 4.66667H2.91658" stroke="#737685" stroke-width="1.2" stroke-linecap="round" stroke-linejoin="round"/>
<path d="M4.08325 12.25H9.91659C10.226 12.25 10.5228 12.1271 10.7415 11.9083C10.9603 11.6895 11.0833 11.3928 11.0833 11.0833V2.91667C11.0833 2.60725 10.9603 2.3105 10.7415 2.09171C10.5228 1.87292 10.226 1.75 9.91659 1.75H5.83325L2.91658 4.66667V11.0833C2.91658 11.3928 3.0395 11.6895 3.25829 11.9083C3.47709 12.1271 3.77383 12.25 4.08325 12.25Z" stroke="#737685" stroke-width="1.2" stroke-linecap="round" stroke-linejoin="round"/>
<path d="M8.75 5.25H8.16667" stroke="#737685" stroke-width="1.5" stroke-linecap="round" stroke-linejoin="round"/>
<path d="M8.75 7.58331H5.25" stroke="#737685" stroke-width="1.5" stroke-linecap="round" stroke-linejoin="round"/>
<path d="M8.75 9.91669H5.25" stroke="#737685" stroke-width="1.5" stroke-linecap="round" stroke-linejoin="round"/>
</svg>
