<svg width="18" height="18" viewBox="0 0 20 17" fill="currentColor" xmlns="http://www.w3.org/2000/svg">
<path d="M19.3555 11.8438V6.80469L19.668 6.64844C19.7721 6.59635 19.8503 6.51823 19.9023 6.41406C19.9674 6.3099 20 6.20573 20 6.10156C20 5.98438 19.9674 5.88021 19.9023 5.78906C19.8503 5.6849 19.7786 5.60026 19.6875 5.53516L10.2734 0.515625C10.1823 0.463542 10.0781 0.4375 9.96094 0.4375C9.85677 0.4375 9.75911 0.463542 9.66797 0.515625L0.3125 5.55469C0.221354 5.60677 0.143229 5.6849 0.078125 5.78906C0.0260417 5.88021 0 5.98438 0 6.10156C0 6.21875 0.0260417 6.32943 0.078125 6.43359C0.143229 6.52474 0.227865 6.59635 0.332031 6.64844L4.43359 8.83594C4.40755 8.875 4.38802 8.92057 4.375 8.97266C4.36198 9.02474 4.35547 9.07682 4.35547 9.12891V14.4219C4.35547 14.513 4.36849 14.6042 4.39453 14.6953C4.43359 14.7734 4.49219 14.8385 4.57031 14.8906C4.63542 14.9557 5.05208 15.1706 5.82031 15.5352C6.60156 15.8867 7.98177 16.0625 9.96094 16.0625C11.9401 16.0625 13.3203 15.8932 14.1016 15.5547C14.8958 15.2161 15.3255 15.0143 15.3906 14.9492C15.4688 14.8971 15.5273 14.832 15.5664 14.7539C15.6055 14.6628 15.625 14.5716 15.625 14.4805V9.05078C15.625 9.01172 15.6185 8.97266 15.6055 8.93359C15.6055 8.88151 15.5924 8.83594 15.5664 8.79688L18.1055 7.46875V11.8438C17.9232 11.9609 17.7734 12.1172 17.6562 12.3125C17.5391 12.4948 17.4805 12.7031 17.4805 12.9375C17.4805 13.276 17.5977 13.569 17.832 13.8164C18.0794 14.0638 18.3789 14.1875 18.7305 14.1875C19.082 14.1875 19.375 14.0638 19.6094 13.8164C19.8568 13.569 19.9805 13.276 19.9805 12.9375C19.9805 12.7031 19.9219 12.4948 19.8047 12.3125C19.6875 12.1172 19.5378 11.9609 19.3555 11.8438ZM14.375 14.1094C14.1276 14.2266 13.6589 14.3763 12.9688 14.5586C12.2786 14.7279 11.276 14.8125 9.96094 14.8125C8.64583 14.8125 7.64323 14.7214 6.95312 14.5391C6.27604 14.3568 5.82682 14.207 5.60547 14.0898V9.46094L9.66797 11.6094C9.70703 11.6354 9.7526 11.6549 9.80469 11.668C9.85677 11.681 9.90885 11.6875 9.96094 11.6875C10.013 11.6875 10.0586 11.681 10.0977 11.668C10.1497 11.6549 10.2018 11.6354 10.2539 11.6094L14.375 9.44141V14.1094ZM9.96094 10.3594L1.91406 6.08203L9.98047 1.76562L18.0469 6.08203L9.96094 10.3594Z" fill="currentColor"/>
</svg>
