<svg width="18" height="18" viewBox="0 0 20 21" fill="currentColor" xmlns="http://www.w3.org/2000/svg">
<path d="M19.9805 18.668L18.3398 8.82422C18.2747 8.1862 17.9883 7.63932 17.4805 7.18359C16.9727 6.72786 16.3997 6.5 15.7617 6.5H14.375V4.83984C14.375 4.20182 14.2643 3.60286 14.043 3.04297C13.8346 2.48307 13.5352 1.99479 13.1445 1.57812C12.7669 1.16146 12.3112 0.835938 11.7773 0.601562C11.2435 0.354167 10.6576 0.230469 10.0195 0.230469C9.38151 0.230469 8.79557 0.354167 8.26172 0.601562C7.72786 0.835938 7.26562 1.16146 6.875 1.57812C6.48438 1.99479 6.17839 2.48307 5.95703 3.04297C5.73568 3.60286 5.625 4.20182 5.625 4.83984V6.5H4.12109C3.48307 6.5 2.91016 6.72786 2.40234 7.18359C1.89453 7.63932 1.60807 8.17318 1.54297 8.78516L0.0390625 18.6484C0 18.9089 0.00651042 19.1367 0.0585938 19.332C0.110677 19.5404 0.201823 19.7161 0.332031 19.8594C0.449219 19.9896 0.592448 20.0872 0.761719 20.1523C0.94401 20.2305 1.15234 20.2695 1.38672 20.2695H18.4375C18.763 20.2695 19.0234 20.2174 19.2188 20.1133C19.4141 20.0091 19.5573 19.9049 19.6484 19.8008C19.7396 19.6966 19.8242 19.5534 19.9023 19.3711C19.9805 19.1888 20.0065 18.9544 19.9805 18.668ZM6.875 4.83984C6.875 3.91536 7.16797 3.1276 7.75391 2.47656C8.33984 1.8125 9.09505 1.48047 10.0195 1.48047C10.944 1.48047 11.6927 1.8125 12.2656 2.47656C12.8385 3.1276 13.125 3.91536 13.125 4.83984V6.5H6.875V4.83984ZM18.4961 19L1.46484 19.0195C1.41276 19.0195 1.36068 19.0065 1.30859 18.9805C1.26953 18.9414 1.25651 18.8828 1.26953 18.8047L2.77344 8.96094C2.8125 8.63542 2.96224 8.35547 3.22266 8.12109C3.49609 7.8737 3.79557 7.75 4.12109 7.75H5.625V9.17578C5.44271 9.29297 5.29297 9.44922 5.17578 9.64453C5.05859 9.82682 5 10.0286 5 10.25C5 10.6016 5.11719 10.901 5.35156 11.1484C5.59896 11.3828 5.89844 11.5 6.25 11.5C6.60156 11.5 6.89453 11.3828 7.12891 11.1484C7.3763 10.901 7.5 10.6016 7.5 10.25C7.5 10.0286 7.44141 9.82682 7.32422 9.64453C7.20703 9.44922 7.05729 9.29297 6.875 9.17578V7.75H13.125V9.17578C12.9427 9.29297 12.793 9.44922 12.6758 9.64453C12.5586 9.82682 12.5 10.0286 12.5 10.25C12.5 10.6016 12.6172 10.901 12.8516 11.1484C13.099 11.3828 13.3984 11.5 13.75 11.5C14.1016 11.5 14.3945 11.3828 14.6289 11.1484C14.8763 10.901 15 10.6016 15 10.25C15 10.0286 14.9414 9.82682 14.8242 9.64453C14.707 9.44922 14.5573 9.29297 14.375 9.17578V7.75H15.7617C16.0872 7.75 16.3802 7.8737 16.6406 8.12109C16.9141 8.35547 17.0703 8.64844 17.1094 9L18.7305 18.8242C18.7435 18.8633 18.7305 18.9023 18.6914 18.9414C18.6523 18.9805 18.5872 19 18.4961 19Z" fill="currentColor"/>
</svg>
