<svg width="18" height="19" viewBox="0 0 18 19" fill="none" xmlns="http://www.w3.org/2000/svg">
<path d="M17.9824 16.7012L16.5059 7.8418C16.4473 7.26758 16.1895 6.77539 15.7324 6.36523C15.2754 5.95508 14.7598 5.75 14.1855 5.75H12.9375V4.25586C12.9375 3.68164 12.8379 3.14258 12.6387 2.63867C12.4512 2.13477 12.1816 1.69531 11.8301 1.32031C11.4902 0.945312 11.0801 0.652344 10.5996 0.441406C10.1191 0.21875 9.5918 0.107422 9.01758 0.107422C8.44336 0.107422 7.91602 0.21875 7.43555 0.441406C6.95508 0.652344 6.53906 0.945312 6.1875 1.32031C5.83594 1.69531 5.56055 2.13477 5.36133 2.63867C5.16211 3.14258 5.0625 3.68164 5.0625 4.25586V5.75H3.70898C3.13477 5.75 2.61914 5.95508 2.16211 6.36523C1.70508 6.77539 1.44727 7.25586 1.38867 7.80664L0.0351562 16.6836C0 16.918 0.00585937 17.123 0.0527344 17.2988C0.0996094 17.4863 0.181641 17.6445 0.298828 17.7734C0.404297 17.8906 0.533203 17.9785 0.685547 18.0371C0.849609 18.1074 1.03711 18.1426 1.24805 18.1426H16.5938C16.8867 18.1426 17.1211 18.0957 17.2969 18.002C17.4727 17.9082 17.6016 17.8145 17.6836 17.7207C17.7656 17.627 17.8418 17.498 17.9121 17.334C17.9824 17.1699 18.0059 16.959 17.9824 16.7012ZM6.1875 4.25586C6.1875 3.42383 6.45117 2.71484 6.97852 2.12891C7.50586 1.53125 8.18555 1.23242 9.01758 1.23242C9.84961 1.23242 10.5234 1.53125 11.0391 2.12891C11.5547 2.71484 11.8125 3.42383 11.8125 4.25586V5.75H6.1875V4.25586ZM16.6465 17L1.31836 17.0176C1.27148 17.0176 1.22461 17.0059 1.17773 16.9824C1.14258 16.9473 1.13086 16.8945 1.14258 16.8242L2.49609 7.96484C2.53125 7.67188 2.66602 7.41992 2.90039 7.20898C3.14648 6.98633 3.41602 6.875 3.70898 6.875H5.0625V8.1582C4.89844 8.26367 4.76367 8.4043 4.6582 8.58008C4.55273 8.74414 4.5 8.92578 4.5 9.125C4.5 9.44141 4.60547 9.71094 4.81641 9.93359C5.03906 10.1445 5.30859 10.25 5.625 10.25C5.94141 10.25 6.20508 10.1445 6.41602 9.93359C6.63867 9.71094 6.75 9.44141 6.75 9.125C6.75 8.92578 6.69727 8.74414 6.5918 8.58008C6.48633 8.4043 6.35156 8.26367 6.1875 8.1582V6.875H11.8125V8.1582C11.6484 8.26367 11.5137 8.4043 11.4082 8.58008C11.3027 8.74414 11.25 8.92578 11.25 9.125C11.25 9.44141 11.3555 9.71094 11.5664 9.93359C11.7891 10.1445 12.0586 10.25 12.375 10.25C12.6914 10.25 12.9551 10.1445 13.166 9.93359C13.3887 9.71094 13.5 9.44141 13.5 9.125C13.5 8.92578 13.4473 8.74414 13.3418 8.58008C13.2363 8.4043 13.1016 8.26367 12.9375 8.1582V6.875H14.1855C14.4785 6.875 14.7422 6.98633 14.9766 7.20898C15.2227 7.41992 15.3633 7.68359 15.3984 8L16.8574 16.8418C16.8691 16.877 16.8574 16.9121 16.8223 16.9473C16.7871 16.9824 16.7285 17 16.6465 17Z" fill="#48A0FF"/>
</svg>
