<svg width="16" height="16" viewBox="0 0 16 16" fill="none" xmlns="http://www.w3.org/2000/svg">
<path d="M7.262 5.45V3.938H8.738V5.45H7.262ZM8 13.712C9.08 13.712 10.088 13.436 11.024 12.884C11.936 12.356 12.656 11.636 13.184 10.724C13.736 9.788 14.012 8.78 14.012 7.7C14.012 6.62 13.736 5.612 13.184 4.676C12.656 3.764 11.936 3.044 11.024 2.516C10.088 1.964 9.08 1.688 8 1.688C6.92 1.688 5.912 1.964 4.976 2.516C4.064 3.044 3.344 3.764 2.816 4.676C2.264 5.612 1.988 6.62 1.988 7.7C1.988 8.78 2.264 9.788 2.816 10.724C3.344 11.636 4.064 12.356 4.976 12.884C5.912 13.436 6.92 13.712 8 13.712ZM8 0.211999C9.368 0.211999 10.634 0.553999 11.798 1.238C12.926 1.886 13.814 2.774 14.462 3.902C15.146 5.066 15.488 6.332 15.488 7.7C15.488 9.068 15.146 10.334 14.462 11.498C13.814 12.626 12.926 13.514 11.798 14.162C10.634 14.846 9.368 15.188 8 15.188C6.632 15.188 5.366 14.846 4.202 14.162C3.074 13.502 2.186 12.608 1.538 11.48C0.854 10.316 0.512 9.056 0.512 7.7C0.512 6.344 0.854 5.084 1.538 3.92C2.198 2.792 3.092 1.898 4.22 1.238C5.384 0.553999 6.644 0.211999 8 0.211999ZM7.262 11.462V6.962H8.738V11.462H7.262Z" fill="#1C67FF"/>
</svg>
