<svg width="20" height="20" viewBox="0 0 25 24" fill="none" xmlns="http://www.w3.org/2000/svg">
<path d="M19.6909 9H9.32727C8.18254 9 7.25455 9.89543 7.25455 11V17C7.25455 18.1046 8.18254 19 9.32727 19H19.6909C20.8356 19 21.7636 18.1046 21.7636 17V11C21.7636 9.89543 20.8356 9 19.6909 9Z" stroke="currentColor" stroke-width="1.5" stroke-linecap="round" stroke-linejoin="round"/>
<path d="M14.5091 16C15.6538 16 16.5818 15.1046 16.5818 14C16.5818 12.8954 15.6538 12 14.5091 12C13.3644 12 12.4364 12.8954 12.4364 14C12.4364 15.1046 13.3644 16 14.5091 16Z" stroke="currentColor" stroke-width="1.5" stroke-linecap="round" stroke-linejoin="round"/>
<path d="M17.6182 9V7C17.6182 6.46957 17.3998 5.96086 17.0111 5.58579C16.6224 5.21071 16.0952 5 15.5455 5H5.18182C4.6321 5 4.10489 5.21071 3.71618 5.58579C3.32747 5.96086 3.10909 6.46957 3.10909 7V13C3.10909 13.5304 3.32747 14.0391 3.71618 14.4142C4.10489 14.7893 4.6321 15 5.18182 15H7.25455" stroke="currentColor" stroke-width="1.5" stroke-linecap="round" stroke-linejoin="round"/>
</svg>