<svg width="28" height="20" viewBox="0 0 28 20" fill="none" xmlns="http://www.w3.org/2000/svg">
<path fill-rule="evenodd" clip-rule="evenodd" d="M14.0002 4.28571C14.0002 6.65265 12.1192 8.57143 9.79893 8.57143C7.47863 8.57143 5.59766 6.65265 5.59766 4.28571C5.59766 1.91878 7.47863 0 9.79893 0C12.1192 0 14.0002 1.91878 14.0002 4.28571ZM20.3018 2.85693C18.3683 2.85693 16.8008 4.45592 16.8008 6.42836C16.8008 8.40081 18.3683 9.99979 20.3018 9.99979C22.2354 9.99979 23.8029 8.40081 23.8029 6.42836C23.8029 4.45592 22.2354 2.85693 20.3018 2.85693ZM17.431 13.8001C16.7185 12.3442 15.2591 11.4255 13.6639 11.4287H5.93356C4.33834 11.4255 2.87895 12.3442 2.16642 13.8001L0.14981 17.9287C-0.0686131 18.3709 -0.047013 18.8969 0.206895 19.3189C0.460804 19.7409 0.91081 19.9987 1.39619 20.0002H18.2013C18.6866 19.9987 19.1367 19.7409 19.3906 19.3189C19.6445 18.8969 19.6661 18.3709 19.4476 17.9287L17.431 13.8001ZM26.5197 15.2141L27.8501 17.9284C28.0686 18.3705 28.047 18.8965 27.7931 19.3185C27.5392 19.7405 27.0891 19.9983 26.6038 19.9998H22.1644C22.5419 18.9026 22.466 17.696 21.9544 16.6569L20.0918 12.8569H22.7666C24.3537 12.8564 25.8056 13.7683 26.5197 15.2141Z" fill="#60FF6A"/>
</svg>
