<svg width="20" height="20" viewBox="0 0 25 24" fill="none" xmlns="http://www.w3.org/2000/svg">
<path d="M3.10909 19H3.11946" stroke="currentColor" stroke-width="1.5" stroke-linecap="round" stroke-linejoin="round"/>
<path d="M7.25455 19C7.25455 17.9391 6.81779 16.9217 6.04037 16.1716C5.26295 15.4214 4.20854 15 3.10909 15" stroke="currentColor" stroke-width="1.5" stroke-linecap="round" stroke-linejoin="round"/>
<path d="M11.4 19C11.4 16.8783 10.5265 14.8434 8.97165 13.3431C7.4168 11.8429 5.30798 11 3.10909 11" stroke="currentColor" stroke-width="1.5" stroke-linecap="round" stroke-linejoin="round"/>
<path d="M15.5455 19H18.6545C19.4791 19 20.2699 18.6839 20.853 18.1213C21.4361 17.5587 21.7636 16.7956 21.7636 16V8C21.7636 7.20435 21.4361 6.44129 20.853 5.87868C20.2699 5.31607 19.4791 5 18.6545 5H6.21818C5.58027 5.00584 4.95967 5.20088 4.44057 5.55866C3.92146 5.91644 3.52898 6.41965 3.31636 7" stroke="currentColor" stroke-width="1.5" stroke-linecap="round" stroke-linejoin="round"/>
</svg>