<svg width="18" height="19" viewBox="0 0 18 19" fill="none" xmlns="http://www.w3.org/2000/svg">
<path d="M13.1133 14.8027L9.58008 12.8516C10.2363 12.3242 10.6758 11.6328 10.8984 10.7773C11.1328 9.92188 11.25 9.20703 11.25 8.63281V6.25977C11.25 5.86133 11.127 5.46875 10.8809 5.08203C10.6465 4.68359 10.3301 4.32617 9.93164 4.00977C9.54492 3.69336 9.09961 3.43555 8.5957 3.23633C8.0918 3.03711 7.57617 2.9375 7.04883 2.9375C6.5332 2.9375 6.01758 3.03711 5.50195 3.23633C4.99805 3.43555 4.54688 3.69336 4.14844 4.00977C3.75 4.32617 3.42773 4.68359 3.18164 5.08203C2.93555 5.46875 2.8125 5.86133 2.8125 6.25977V8.63281C2.8125 9.14844 2.94141 9.8457 3.19922 10.7246C3.45703 11.6035 3.91992 12.3066 4.58789 12.834L0.949219 14.8027C0.949219 14.8027 0.791016 14.8965 0.474609 15.084C0.158203 15.2715 0 15.4941 0 15.752V17.1758C0 17.4453 0.09375 17.668 0.28125 17.8438C0.46875 18.0312 0.691406 18.125 0.949219 18.125H13.1133C13.3711 18.125 13.5938 18.0312 13.7812 17.8438C13.9688 17.668 14.0625 17.4453 14.0625 17.1758V15.752C14.0625 15.4707 13.9043 15.2422 13.5879 15.0664C13.2715 14.8906 13.1133 14.8027 13.1133 14.8027ZM12.9375 17H1.125V15.998C1.16016 15.9746 1.20117 15.9453 1.24805 15.9102C1.30664 15.875 1.35938 15.8516 1.40625 15.8398C1.41797 15.8281 1.42969 15.8223 1.44141 15.8223C1.45312 15.8105 1.46484 15.8047 1.47656 15.8047L5.11523 13.8184C5.2793 13.7363 5.41406 13.6191 5.51953 13.4668C5.625 13.3027 5.68359 13.127 5.69531 12.9395C5.71875 12.752 5.68945 12.5703 5.60742 12.3945C5.53711 12.2188 5.43164 12.0723 5.29102 11.9551C4.81055 11.5801 4.46484 11.0469 4.25391 10.3555C4.04297 9.65234 3.9375 9.07812 3.9375 8.63281V6.25977C3.9375 5.84961 4.25391 5.38086 4.88672 4.85352C5.53125 4.32617 6.25195 4.0625 7.04883 4.0625C7.86914 4.0625 8.58398 4.32617 9.19336 4.85352C9.81445 5.38086 10.125 5.84961 10.125 6.25977V8.63281C10.125 9.07812 10.0371 9.65234 9.86133 10.3555C9.68555 11.0469 9.35742 11.5801 8.87695 11.9551C8.72461 12.0723 8.60742 12.2188 8.52539 12.3945C8.45508 12.5703 8.43164 12.752 8.45508 12.9395C8.4668 13.127 8.52539 13.3027 8.63086 13.4668C8.73633 13.6191 8.87109 13.7422 9.03516 13.8359L12.5684 15.7871C12.5918 15.7988 12.6094 15.8105 12.6211 15.8223C12.6445 15.834 12.6621 15.8398 12.6738 15.8398C12.7207 15.8633 12.7676 15.8867 12.8145 15.9102C12.8613 15.9336 12.9023 15.9629 12.9375 15.998V17ZM17.0508 12.0078L13.4648 10.0391C14.1211 9.52344 14.5723 8.83789 14.8184 7.98242C15.0645 7.11523 15.1875 6.40039 15.1875 5.83789V3.46484C15.1875 3.06641 15.0645 2.66797 14.8184 2.26953C14.5723 1.87109 14.25 1.51367 13.8516 1.19727C13.4531 0.880859 12.9961 0.623047 12.4805 0.423828C11.9766 0.212891 11.4609 0.107422 10.9336 0.107422C10.2539 0.107422 9.5918 0.271484 8.94727 0.599609C8.30273 0.927734 7.77539 1.33203 7.36523 1.8125C7.59961 1.82422 7.83984 1.83594 8.08594 1.84766C8.33203 1.85937 8.56641 1.90039 8.78906 1.9707C9.08203 1.74805 9.41016 1.57227 9.77344 1.44336C10.1484 1.31445 10.5352 1.25 10.9336 1.25C11.7539 1.25 12.4805 1.51367 13.1133 2.04102C13.7461 2.56836 14.0625 3.04297 14.0625 3.46484V5.83789C14.0625 6.27148 13.9629 6.83984 13.7637 7.54297C13.5762 8.23438 13.2422 8.77344 12.7617 9.16016C12.6094 9.27734 12.4922 9.42383 12.4102 9.59961C12.3398 9.77539 12.3164 9.95703 12.3398 10.1445C12.3516 10.332 12.4102 10.5078 12.5156 10.6719C12.6211 10.8242 12.7559 10.9473 12.9199 11.041L16.5059 12.9922C16.5293 13.0039 16.5469 13.0156 16.5586 13.0273C16.582 13.0273 16.5996 13.0332 16.6113 13.0449C16.6582 13.0566 16.7051 13.0801 16.752 13.1152C16.7988 13.1387 16.8398 13.1621 16.875 13.1855V14.1875H14.6074C14.7715 14.3164 14.8887 14.4746 14.959 14.6621C15.041 14.8496 15.1172 15.0664 15.1875 15.3125H17.0508C17.3086 15.3125 17.5312 15.2246 17.7188 15.0488C17.9062 14.8613 18 14.6328 18 14.3633V12.957C18 12.6758 17.8418 12.4473 17.5254 12.2715C17.209 12.0957 17.0508 12.0078 17.0508 12.0078Z" fill="#9013FE"/>
</svg>
