<svg width="16" height="19" viewBox="0 0 16 19" fill="none" xmlns="http://www.w3.org/2000/svg">
<path d="M7.73633 15.9277C7.73633 15.916 7.73633 15.9102 7.73633 15.9102L6.11914 13.3789C6.06055 13.2852 5.97852 13.2266 5.87305 13.2031C5.76758 13.168 5.66211 13.1797 5.55664 13.2383L5.41602 13.3262C5.32227 13.373 5.26953 13.4551 5.25781 13.5723C5.25781 13.6895 5.28711 13.7949 5.3457 13.8887L6.38281 15.5059C6.33594 15.4941 6.28906 15.4824 6.24219 15.4707C6.20703 15.459 6.16602 15.4473 6.11914 15.4355C5.66211 15.3184 5.22266 15.1543 4.80078 14.9434C4.39062 14.7324 4.00391 14.4863 3.64062 14.2051C3.28906 13.9121 2.9668 13.5898 2.67383 13.2383C2.38086 12.875 2.12305 12.4883 1.90039 12.0781C1.50195 11.293 1.26172 10.4668 1.17969 9.59961C1.10938 8.7207 1.20898 7.85938 1.47852 7.01562C1.74805 6.17188 2.16992 5.41602 2.74414 4.74805C3.33008 4.08008 4.01562 3.54102 4.80078 3.13086C4.92969 3.06055 5.01758 2.95508 5.06445 2.81445C5.11133 2.67383 5.09961 2.5332 5.0293 2.39258C4.95898 2.26367 4.85352 2.17578 4.71289 2.12891C4.57227 2.08203 4.4375 2.09375 4.30859 2.16406C3.83984 2.39844 3.40625 2.67383 3.00781 2.99023C2.60938 3.30664 2.24609 3.6582 1.91797 4.04492C1.58984 4.43164 1.29688 4.84766 1.03906 5.29297C0.792969 5.72656 0.59375 6.18945 0.441406 6.68164C0.277344 7.17383 0.166016 7.67188 0.107422 8.17578C0.0605469 8.67969 0.0546875 9.18359 0.0898438 9.6875C0.136719 10.1797 0.230469 10.6719 0.371094 11.1641C0.511719 11.6445 0.699219 12.1133 0.933594 12.5703C1.19141 13.0625 1.49023 13.5195 1.83008 13.9414C2.16992 14.3516 2.55078 14.7266 2.97266 15.0664C3.39453 15.3945 3.8457 15.6816 4.32617 15.9277C4.80664 16.1738 5.31055 16.3613 5.83789 16.4902C5.84961 16.502 5.86133 16.5078 5.87305 16.5078C5.88477 16.5078 5.89648 16.5078 5.9082 16.5078L4.48438 17.2461C4.39062 17.293 4.32617 17.3691 4.29102 17.4746C4.26758 17.5801 4.28516 17.6797 4.34375 17.7734L4.39648 17.9141C4.45508 18.0078 4.53125 18.0664 4.625 18.0898C4.71875 18.125 4.8125 18.1191 4.90625 18.0723L7.52539 16.7188L7.70117 16.6309C7.74805 16.5957 7.78906 16.5605 7.82422 16.5254C7.85938 16.4785 7.88281 16.4316 7.89453 16.3848C7.90625 16.3379 7.90625 16.291 7.89453 16.2441C7.89453 16.1855 7.87695 16.1328 7.8418 16.0859L7.73633 15.9277ZM15.0664 5.76758C14.8203 5.27539 14.5273 4.82422 14.1875 4.41406C13.8477 3.99219 13.4727 3.61719 13.0625 3.28906C12.6523 2.94922 12.207 2.66211 11.7266 2.42773C11.2461 2.18164 10.7422 1.98828 10.2148 1.84766C10.1445 1.82422 10.0684 1.80664 9.98633 1.79492C9.91602 1.77148 9.83984 1.75391 9.75781 1.74219L11.1641 1.03906C11.2578 0.980469 11.3281 0.898438 11.375 0.792969C11.4219 0.6875 11.416 0.587891 11.3574 0.494141L11.3047 0.353516C11.2461 0.259766 11.1582 0.201172 11.041 0.177734C10.9355 0.142578 10.8359 0.148438 10.7422 0.195312L8.12305 1.54883L7.94727 1.63672C7.90039 1.67188 7.85938 1.71289 7.82422 1.75977C7.78906 1.79492 7.76562 1.83594 7.75391 1.88281C7.74219 1.92969 7.73633 1.98242 7.73633 2.04102C7.74805 2.08789 7.77148 2.13477 7.80664 2.18164L7.89453 2.35742C7.90625 2.35742 7.91211 2.35742 7.91211 2.35742L9.5293 4.88867C9.58789 4.98242 9.66992 5.04688 9.77539 5.08203C9.88086 5.10547 9.98047 5.08789 10.0742 5.0293L10.2148 4.94141C10.3086 4.89453 10.3613 4.8125 10.373 4.69531C10.3848 4.57813 10.3613 4.47266 10.3027 4.37891L9.26562 2.76172C9.37109 2.78516 9.48242 2.80859 9.59961 2.83203C9.7168 2.84375 9.82812 2.86719 9.93359 2.90234C10.8477 3.13672 11.6621 3.54687 12.377 4.13281C13.0918 4.71875 13.666 5.42773 14.0996 6.25977C14.5098 7.05664 14.75 7.88867 14.8203 8.75586C14.8906 9.62305 14.791 10.4785 14.5215 11.3223C14.252 12.166 13.8359 12.9219 13.2734 13.5898C12.7109 14.2578 12.0371 14.7969 11.252 15.207C11.123 15.2773 11.0352 15.3828 10.9883 15.5234C10.9414 15.6641 10.9531 15.8047 11.0234 15.9453C11.0703 16.0391 11.1348 16.1152 11.2168 16.1738C11.3105 16.2207 11.4043 16.2441 11.498 16.2441C11.5449 16.2441 11.5859 16.2383 11.6211 16.2266C11.668 16.2148 11.7148 16.1973 11.7617 16.1738C12.2188 15.9395 12.6406 15.6641 13.0273 15.3477C13.4258 15.0312 13.7832 14.6855 14.0996 14.3105C14.4277 13.9238 14.7148 13.5078 14.9609 13.0625C15.207 12.6172 15.4062 12.1484 15.5586 11.6562C15.7227 11.1641 15.8281 10.666 15.875 10.1621C15.9336 9.6582 15.9395 9.16016 15.8926 8.66797C15.8574 8.16406 15.7695 7.67188 15.6289 7.19141C15.4883 6.69922 15.3008 6.22461 15.0664 5.76758Z" fill="#F56BAA"/>
</svg>
