<svg width="26" height="29" viewBox="0 0 26 29" fill="none" xmlns="http://www.w3.org/2000/svg">
<path d="M12.9727 0.75C11.2227 0.75 9.57292 1.08724 8.02344 1.76172C6.49219 2.41797 5.15234 3.32031 4.00391 4.46875C2.85547 5.61719 1.94401 6.96615 1.26953 8.51562C0.613281 10.0469 0.285156 11.6875 0.285156 13.4375C0.285156 15.0781 0.585938 16.6367 1.1875 18.1133C1.78906 19.5716 2.60938 20.875 3.64844 22.0234C4.6875 23.1536 5.90885 24.0742 7.3125 24.7852C8.73438 25.4961 10.2565 25.9245 11.8789 26.0703L9.36328 27.3555C9.21745 27.4284 9.10807 27.5469 9.03516 27.7109C8.96224 27.8932 8.97135 28.0573 9.0625 28.2031L9.14453 28.4219C9.23568 28.5859 9.36328 28.6862 9.52734 28.7227C9.70964 28.7773 9.88281 28.7591 10.0469 28.668L14.2305 26.5352C14.2305 26.5169 14.2305 26.5078 14.2305 26.5078C14.2305 26.5078 14.2396 26.5078 14.2578 26.5078L14.5312 26.3711C14.6042 26.3164 14.668 26.2617 14.7227 26.207C14.7773 26.1341 14.8138 26.0612 14.832 25.9883C14.8503 25.9154 14.8503 25.8333 14.832 25.7422C14.832 25.651 14.8047 25.569 14.75 25.4961L14.5859 25.2227L11.9883 21.1758C11.8971 21.0299 11.7604 20.9297 11.5781 20.875C11.4141 20.8203 11.25 20.8385 11.0859 20.9297L10.8945 21.0664C10.7305 21.1576 10.6393 21.2943 10.6211 21.4766C10.6211 21.6589 10.6667 21.8229 10.7578 21.9688L12.2617 24.3477C10.8216 24.2565 9.48177 23.9102 8.24219 23.3086C7.0026 22.6888 5.91797 21.8867 4.98828 20.9023C4.07682 19.918 3.35677 18.7878 2.82812 17.5117C2.29948 16.2357 2.03516 14.8776 2.03516 13.4375C2.03516 11.9245 2.31771 10.5117 2.88281 9.19922C3.46615 7.86849 4.25 6.71094 5.23438 5.72656C6.23698 4.72396 7.40365 3.9401 8.73438 3.375C10.0651 2.79167 11.4779 2.5 12.9727 2.5C14.4857 2.5 15.9076 2.79167 17.2383 3.375C18.569 3.9401 19.7266 4.72396 20.7109 5.72656C21.7135 6.71094 22.4974 7.86849 23.0625 9.19922C23.6458 10.5117 23.9375 11.9245 23.9375 13.4375C23.9375 14.3125 23.8372 15.1602 23.6367 15.9805C23.4544 16.8008 23.1719 17.5846 22.7891 18.332C22.4245 19.0794 21.9688 19.7812 21.4219 20.4375C20.875 21.0755 20.2552 21.6589 19.5625 22.1875C19.3802 22.3333 19.2708 22.5247 19.2344 22.7617C19.1979 22.9987 19.2526 23.2174 19.3984 23.418C19.5443 23.6003 19.7357 23.7096 19.9727 23.7461C20.2096 23.7826 20.4284 23.7279 20.6289 23.582C21.431 22.9805 22.1419 22.306 22.7617 21.5586C23.3997 20.793 23.9284 19.9818 24.3477 19.125C24.7852 18.25 25.1133 17.3385 25.332 16.3906C25.569 15.4245 25.6875 14.4401 25.6875 13.4375C25.6875 11.6875 25.3503 10.0469 24.6758 8.51562C24.0195 6.96615 23.1081 5.61719 21.9414 4.46875C20.793 3.32031 19.444 2.41797 17.8945 1.76172C16.3633 1.08724 14.7227 0.75 12.9727 0.75Z" fill="#97A1B9"/>
</svg>
