<svg width="28" height="26" viewBox="0 0 28 26" fill="none" xmlns="http://www.w3.org/2000/svg">
<path d="M0.282005 10.7479C0.0454714 10.5796 -0.055654 10.283 0.0302483 10.0096L0.14214 9.66783C0.223945 9.39771 0.469888 9.20647 0.757545 9.18932L9.6949 8.49205L13.1216 0.439273C13.2365 0.157167 13.525 -0.019783 13.8349 0.00177042H14.1985C14.4907 -0.00428838 14.7546 0.171368 14.8559 0.439273L18.2966 8.49205L27.2339 9.18932C27.5216 9.20647 27.7675 9.39771 27.8493 9.66783L27.9612 10.0096C28.0564 10.2744 27.9726 10.5691 27.7514 10.7479L21.0099 16.4081L23.0799 24.8984C23.1481 25.1702 23.0435 25.4555 22.8142 25.623L22.4086 25.8417C22.172 25.9981 21.8619 25.9981 21.6254 25.8417L14.0167 21.33L6.36612 25.8828C6.12953 26.0391 5.81947 26.0391 5.58288 25.8828L5.27517 25.6777C5.04587 25.5102 4.94124 25.2248 5.00943 24.9531L7.02348 16.4081L0.282005 10.7479Z" fill="#FF6913"/>
</svg>
