<svg width="18" height="18" viewBox="0 0 14 15" fill="none" xmlns="http://www.w3.org/2000/svg">
<path opacity="0.8" d="M9.816 11.4L9.064 8.184L11.56 6.024L8.28 5.736L7 2.744L5.72 5.768L2.44 6.024L4.936 8.184L4.184 11.4L7 9.704L9.816 11.4ZM7 0.743999C8.216 0.743999 9.34133 1.048 10.376 1.656C11.3787 2.232 12.168 3.02133 12.744 4.024C13.352 5.05867 13.656 6.184 13.656 7.4C13.656 8.616 13.352 9.74133 12.744 10.776C12.168 11.7787 11.3787 12.568 10.376 13.144C9.34133 13.752 8.216 14.056 7 14.056C5.784 14.056 4.65867 13.752 3.624 13.144C2.62133 12.5573 1.832 11.7627 1.256 10.76C0.648 9.72533 0.344 8.60533 0.344 7.4C0.344 6.19467 0.648 5.07467 1.256 4.04C1.84267 3.03733 2.63733 2.24267 3.64 1.656C4.67467 1.048 5.79467 0.743999 7 0.743999Z" fill="currentColor"/>
</svg>