<svg width="28" height="28" viewBox="0 0 28 28" fill="none" xmlns="http://www.w3.org/2000/svg">
<path d="M18.6468 2.28235H8.75214C4.8833 2.28235 2.28125 4.99863 2.28125 9.03881V18.3632C2.28125 22.3919 4.8833 25.1082 8.75214 25.1082H18.6468C22.5156 25.1082 25.1062 22.3919 25.1062 18.3632V9.03881C25.1062 4.99863 22.5156 2.28235 18.6468 2.28235Z" fill="#6BBA21"/>
<path d="M12.3402 17.4023C12.0845 17.4023 11.8289 17.3053 11.6337 17.1102L8.92554 14.4019C8.53524 14.0115 8.53524 13.3793 8.92554 12.9901C9.31585 12.5998 9.94696 12.5986 10.3373 12.9889L12.3402 14.9919L17.0512 10.2807C17.4416 9.89033 18.0727 9.89033 18.463 10.2807C18.8533 10.671 18.8533 11.3033 18.463 11.6936L13.0466 17.1102C12.8514 17.3053 12.5958 17.4023 12.3402 17.4023Z" fill="white"/>
</svg>
