<svg width="14" height="13" viewBox="0 0 14 13" fill="currentColor" xmlns="http://www.w3.org/2000/svg">
  <path fill-rule="evenodd" clip-rule="evenodd" d="M13.938 12.0626L7.51558 0.253157C7.42851 0.0966176 7.27151 0.000553319 7.10184 0H6.91089C6.74122 0.000553319 6.58422 0.0966176 6.49715 0.253157L0.0619941 12.0626C-0.0206647 12.2245 -0.0206647 12.4206 0.0619941 12.5826L0.151106 12.74C0.233593 12.9023 0.392781 13.0023 0.56484 13H13.4352C13.6072 13.0023 13.7664 12.9023 13.8489 12.74L13.938 12.5826C14.0207 12.4206 14.0207 12.2245 13.938 12.0626ZM7.63631 9.9215C7.63631 10.1104 7.49382 10.2636 7.31805 10.2636H6.68154C6.50577 10.2636 6.36328 10.1104 6.36328 9.9215V9.23729C6.36328 9.04835 6.50577 8.89518 6.68154 8.89518H7.31805C7.49382 8.89518 7.63631 9.04835 7.63631 9.23729V9.9215ZM7.33684 7.52721C7.41777 7.52784 7.48625 7.46306 7.49596 7.37668L7.75057 5.17353C7.76155 5.07592 7.73293 4.97796 7.67201 4.90462C7.6111 4.83128 7.52377 4.78966 7.43231 4.79037H6.56665C6.47519 4.78966 6.38787 4.83128 6.32695 4.90462C6.26604 4.97796 6.23742 5.07592 6.2484 5.17353L6.503 7.37668C6.51271 7.46306 6.58119 7.52784 6.66213 7.52721H7.33684Z" fill="currentColor"/>
  </svg>