<svg width="18" height="18" viewBox="0 0 18 18" fill="none" xmlns="http://www.w3.org/2000/svg">
<path d="M18 5.22266C18 5.02344 17.9297 4.73047 17.7891 4.34375C17.6484 3.95703 17.2617 3.67578 16.6289 3.5L3.91992 0.96875C3.46289 0.96875 3.06445 1.13281 2.72461 1.46094C2.39648 1.78906 2.23242 2.1875 2.23242 2.65625V4.90625H1.66992C1.21289 4.91797 0.820312 5.08789 0.492188 5.41602C0.164063 5.74414 0 6.13672 0 6.59375V15.5938C0 16.0625 0.164063 16.4609 0.492188 16.7891C0.820312 17.1172 1.21875 17.2812 1.6875 17.2812H16.3125C16.7812 17.2812 17.1797 17.1172 17.5078 16.7891C17.8359 16.4609 18 16.0625 18 15.5938V5.22266ZM3.35742 2.65625C3.35742 2.50391 3.4043 2.375 3.49805 2.26953C3.60352 2.16406 3.73242 2.10547 3.88477 2.09375L16.2949 4.60742C16.2949 4.60742 16.2598 4.66016 16.1895 4.76562C16.1191 4.87109 15.9727 4.91797 15.75 4.90625H3.35742V2.65625ZM16.875 15.5938C16.875 15.7461 16.8164 15.8809 16.6992 15.998C16.5938 16.1035 16.4648 16.1562 16.3125 16.1562H1.6875C1.53516 16.1562 1.40039 16.1035 1.2832 15.998C1.17773 15.8809 1.125 15.7461 1.125 15.5938V6.59375C1.125 6.44141 1.17773 6.3125 1.2832 6.20703C1.40039 6.08984 1.53516 6.03125 1.6875 6.03125H15.75C16.0195 6.03125 16.2715 5.98438 16.5059 5.89062C16.752 5.79687 16.875 5.65625 16.875 5.46875V15.5938ZM3.375 9.96875C3.05859 9.96875 2.78906 10.0801 2.56641 10.3027C2.35547 10.5254 2.25 10.7891 2.25 11.0938C2.25 11.4102 2.35547 11.6797 2.56641 11.9023C2.78906 12.1133 3.05859 12.2188 3.375 12.2188C3.67969 12.2188 3.94336 12.1133 4.16602 11.9023C4.38867 11.6797 4.5 11.4102 4.5 11.0938C4.5 10.7891 4.38867 10.5254 4.16602 10.3027C3.94336 10.0801 3.67969 9.96875 3.375 9.96875Z" fill="#BE74FE"/>
</svg>
