<svg width="28" height="26" viewBox="0 0 28 26" fill="none" xmlns="http://www.w3.org/2000/svg">
<path d="M28 6.67969C28 6.36979 27.8906 5.91406 27.6719 5.3125C27.4531 4.71094 26.8516 4.27344 25.8672 4L6.09766 0.0625C5.38672 0.0625 4.76693 0.317708 4.23828 0.828125C3.72786 1.33854 3.47266 1.95833 3.47266 2.6875V6.1875H2.59766C1.88672 6.20573 1.27604 6.47005 0.765625 6.98047C0.255208 7.49089 0 8.10156 0 8.8125V22.8125C0 23.5417 0.255208 24.1615 0.765625 24.6719C1.27604 25.1823 1.89583 25.4375 2.625 25.4375H25.375C26.1042 25.4375 26.724 25.1823 27.2344 24.6719C27.7448 24.1615 28 23.5417 28 22.8125V6.67969ZM5.22266 2.6875C5.22266 2.45052 5.29557 2.25 5.44141 2.08594C5.60547 1.92188 5.80599 1.83073 6.04297 1.8125L25.3477 5.72266C25.3477 5.72266 25.293 5.80469 25.1836 5.96875C25.0742 6.13281 24.8464 6.20573 24.5 6.1875H5.22266V2.6875ZM26.25 22.8125C26.25 23.0495 26.1589 23.2591 25.9766 23.4414C25.8125 23.6055 25.612 23.6875 25.375 23.6875H2.625C2.38802 23.6875 2.17839 23.6055 1.99609 23.4414C1.83203 23.2591 1.75 23.0495 1.75 22.8125V8.8125C1.75 8.57552 1.83203 8.375 1.99609 8.21094C2.17839 8.02865 2.38802 7.9375 2.625 7.9375H24.5C24.9193 7.9375 25.3112 7.86458 25.6758 7.71875C26.0586 7.57292 26.25 7.35417 26.25 7.0625V22.8125ZM5.25 14.0625C4.75781 14.0625 4.33854 14.2357 3.99219 14.582C3.66406 14.9284 3.5 15.3385 3.5 15.8125C3.5 16.3047 3.66406 16.724 3.99219 17.0703C4.33854 17.3984 4.75781 17.5625 5.25 17.5625C5.72396 17.5625 6.13411 17.3984 6.48047 17.0703C6.82682 16.724 7 16.3047 7 15.8125C7 15.3385 6.82682 14.9284 6.48047 14.582C6.13411 14.2357 5.72396 14.0625 5.25 14.0625Z" fill="#97A1B9"/>
</svg>
