<svg width="18" height="18" viewBox="0 0 20 21" fill="currentColor" xmlns="http://www.w3.org/2000/svg">
<path d="M19.6484 4.46875C19.5443 4.41667 19.4336 4.40365 19.3164 4.42969C19.2122 4.44271 19.1146 4.48828 19.0234 4.56641L15.8594 7.39844L13.0273 4.46875L15.8398 1.22656C15.918 1.13542 15.9635 1.03125 15.9766 0.914062C16.0026 0.796875 15.9896 0.686198 15.9375 0.582031C15.8854 0.477865 15.8073 0.39974 15.7031 0.347656C15.612 0.282552 15.5078 0.25 15.3906 0.25H15.2344C14.7917 0.25 14.2904 0.263021 13.7305 0.289062C13.1706 0.315104 12.6042 0.380208 12.0312 0.484375C11.4714 0.588542 10.931 0.744792 10.4102 0.953125C9.90234 1.14844 9.47917 1.41536 9.14062 1.75391L8.86719 2.02734C8.51562 2.39193 8.22917 2.80859 8.00781 3.27734C7.79948 3.73307 7.65625 4.21484 7.57812 4.72266C7.51302 5.23047 7.50651 5.73828 7.55859 6.24609C7.6237 6.75391 7.75391 7.23568 7.94922 7.69141L0.722656 15.0547C0.240885 15.5495 0 16.1484 0 16.8516C0 17.5417 0.240885 18.1341 0.722656 18.6289L1.60156 19.5273C1.84896 19.7747 2.1224 19.957 2.42188 20.0742C2.73438 20.1914 3.04688 20.25 3.35938 20.25C3.6849 20.25 3.9974 20.1914 4.29688 20.0742C4.60938 19.957 4.88932 19.7747 5.13672 19.5273L12.4414 12.1445C12.793 12.3268 13.1901 12.4766 13.6328 12.5938C14.0755 12.7109 14.4922 12.7695 14.8828 12.7695C15.5208 12.7695 16.1328 12.6458 16.7188 12.3984C17.3047 12.138 17.832 11.7734 18.3008 11.3047L18.5547 11.0312C18.9193 10.6667 19.1992 10.2174 19.3945 9.68359C19.5898 9.13672 19.7331 8.57682 19.8242 8.00391C19.9154 7.41797 19.9674 6.86458 19.9805 6.34375C19.9935 5.8099 20 5.36719 20 5.01562C20 4.89844 19.9674 4.79427 19.9023 4.70312C19.8372 4.59896 19.7526 4.52083 19.6484 4.46875ZM17.6953 10.1914L17.4609 10.4648C17.1094 10.8164 16.7122 11.0833 16.2695 11.2656C15.8268 11.4349 15.3646 11.5195 14.8828 11.5195C14.6484 11.5195 14.388 11.5 14.1016 11.4609C13.8151 11.4089 13.5612 11.3372 13.3398 11.2461C13.1445 11.168 12.9557 11.0703 12.7734 10.9531C12.5911 10.8359 12.4219 10.6992 12.2656 10.543L4.25781 18.6289C4.14062 18.7461 4.00391 18.8372 3.84766 18.9023C3.69141 18.9674 3.52865 19 3.35938 19C3.20312 19 3.04688 18.9674 2.89062 18.9023C2.73438 18.8372 2.59766 18.7461 2.48047 18.6289L1.60156 17.7305C1.36719 17.4831 1.25 17.1901 1.25 16.8516C1.25 16.5 1.36719 16.2005 1.60156 15.9531L9.43359 7.96484C9.30339 7.76953 9.19271 7.57422 9.10156 7.37891C9.01042 7.17057 8.9388 6.95573 8.88672 6.73438C8.73047 6.1224 8.71094 5.44531 8.82812 4.70312C8.94531 3.96094 9.23828 3.34896 9.70703 2.86719L9.98047 2.59375C10.3841 2.17708 11.0156 1.89062 11.875 1.73438C12.7474 1.57812 13.4766 1.48698 14.0625 1.46094L11.7773 4.09766C11.6732 4.21484 11.6211 4.35156 11.6211 4.50781C11.6341 4.66406 11.6927 4.80078 11.7969 4.91797L15.4102 8.62891C15.5273 8.74609 15.6641 8.8112 15.8203 8.82422C15.9766 8.82422 16.1133 8.77214 16.2305 8.66797L18.7891 6.36328C18.75 6.98828 18.6523 7.6849 18.4961 8.45312C18.3398 9.22135 18.0729 9.80078 17.6953 10.1914Z" fill="currentColor"/>
</svg>
