<svg width="18" height="18" viewBox="0 0 18 18" fill="none" xmlns="http://www.w3.org/2000/svg">
<path d="M7.32 13.18L14.82 5.68L13.64 4.46L7.32 10.8L4.36 7.82L3.18 9L7.32 13.18ZM9 0.679999C10.52 0.679999 11.9267 1.06 13.22 1.82C14.4733 2.54 15.46 3.52667 16.18 4.78C16.94 6.07333 17.32 7.48 17.32 9C17.32 10.52 16.94 11.9267 16.18 13.22C15.46 14.4733 14.4733 15.46 13.22 16.18C11.9267 16.94 10.52 17.32 9 17.32C7.48 17.32 6.07333 16.94 4.78 16.18C3.52667 15.4467 2.54 14.4533 1.82 13.2C1.06 11.9067 0.68 10.5067 0.68 9C0.68 7.49333 1.06 6.09333 1.82 4.8C2.55333 3.54667 3.54667 2.55333 4.8 1.82C6.09333 1.06 7.49333 0.679999 9 0.679999Z" fill="#60FF6A"/>
</svg>
