<svg width="18" height="19" viewBox="0 0 18 19" fill="none" xmlns="http://www.w3.org/2000/svg">
<path d="M18 9.125C18 7.88281 17.7656 6.7168 17.2969 5.62695C16.8281 4.52539 16.1836 3.57031 15.3633 2.76172C14.5547 1.94141 13.5996 1.29687 12.498 0.828125C11.4082 0.359375 10.2422 0.125 9 0.125C7.75781 0.125 6.58594 0.359375 5.48438 0.828125C4.39453 1.29687 3.43945 1.94141 2.61914 2.76172C1.81055 3.57031 1.17188 4.52539 0.703125 5.62695C0.234375 6.7168 0 7.88281 0 9.125C0 10.3672 0.234375 11.5391 0.703125 12.6406C1.17188 13.7305 1.81055 14.6855 2.61914 15.5059C3.43945 16.3145 4.39453 16.9531 5.48438 17.4219C6.58594 17.8906 7.75781 18.125 9 18.125C10.2422 18.125 11.4082 17.8906 12.498 17.4219C13.5996 16.9531 14.5547 16.3145 15.3633 15.5059C16.1836 14.6855 16.8281 13.7305 17.2969 12.6406C17.7656 11.5391 18 10.3672 18 9.125ZM1.10742 9.125C1.10742 8.03516 1.3125 7.01562 1.72266 6.06641C2.14453 5.10547 2.71289 4.27344 3.42773 3.57031C4.14258 2.85547 4.97461 2.29297 5.92383 1.88281C6.88477 1.46094 7.91016 1.25 9 1.25C10.0898 1.25 11.1094 1.46094 12.0586 1.88281C13.0195 2.29297 13.8516 2.85547 14.5547 3.57031C15.2695 4.27344 15.832 5.10547 16.2422 6.06641C16.6641 7.01562 16.875 8.03516 16.875 9.125C16.875 10.2148 16.6641 11.2402 16.2422 12.2012C15.832 13.1504 15.2695 13.9824 14.5547 14.6973C13.8516 15.4004 13.0195 15.9629 12.0586 16.3848C11.1094 16.7949 10.0898 17 9 17C7.91016 17 6.88477 16.7949 5.92383 16.3848C4.97461 15.9629 4.14258 15.4004 3.42773 14.6973C2.71289 13.9824 2.14453 13.1504 1.72266 12.2012C1.3125 11.2402 1.10742 10.2148 1.10742 9.125ZM9.5625 13.0625V6.73438L11.6016 8.77344C11.707 8.87891 11.8359 8.93164 11.9883 8.93164C12.1523 8.93164 12.2871 8.87891 12.3926 8.77344C12.5098 8.65625 12.5684 8.52148 12.5684 8.36914C12.5684 8.2168 12.5098 8.08203 12.3926 7.96484L8.98242 4.64258L5.57227 7.96484C5.52539 8.02344 5.48438 8.08789 5.44922 8.1582C5.42578 8.22852 5.41406 8.29883 5.41406 8.36914C5.41406 8.43945 5.42578 8.50977 5.44922 8.58008C5.48438 8.65039 5.52539 8.71484 5.57227 8.77344C5.68945 8.87891 5.82422 8.93164 5.97656 8.93164C6.12891 8.93164 6.26367 8.87891 6.38086 8.77344L8.4375 6.69922V13.0625C8.4375 13.2266 8.49023 13.3613 8.5957 13.4668C8.71289 13.5723 8.84766 13.625 9 13.625C9.16406 13.625 9.29883 13.5723 9.4043 13.4668C9.50977 13.3613 9.5625 13.2266 9.5625 13.0625Z" fill="#4CD964"/>
</svg>
