<svg width="20" height="21" viewBox="0 0 20 21" fill="none" xmlns="http://www.w3.org/2000/svg">
<path d="M5.3125 6.5H0.9375C0.768229 6.5 0.61849 6.5651 0.488281 6.69531C0.371094 6.8125 0.3125 6.95573 0.3125 7.125V19.625C0.3125 19.7943 0.371094 19.9375 0.488281 20.0547C0.61849 20.1849 0.768229 20.25 0.9375 20.25H5.3125C5.48177 20.25 5.625 20.1849 5.74219 20.0547C5.8724 19.9375 5.9375 19.7943 5.9375 19.625V7.125C5.9375 6.95573 5.8724 6.8125 5.74219 6.69531C5.625 6.5651 5.48177 6.5 5.3125 6.5ZM4.6875 19H1.5625V7.75H4.6875V19ZM12.1875 10.2109H7.8125C7.63021 10.2109 7.48047 10.276 7.36328 10.4062C7.24609 10.5234 7.1875 10.6667 7.1875 10.8359V19.625C7.1875 19.7943 7.24609 19.9375 7.36328 20.0547C7.48047 20.1849 7.63021 20.25 7.8125 20.25H12.1875C12.3568 20.25 12.5 20.1849 12.6172 20.0547C12.7474 19.9375 12.8125 19.7943 12.8125 19.625V10.8359C12.8125 10.6667 12.7474 10.5234 12.6172 10.4062C12.5 10.276 12.3568 10.2109 12.1875 10.2109ZM11.5625 19H8.4375V11.4609H11.5625V19ZM19.0625 0.25H14.6875C14.5182 0.25 14.3685 0.315104 14.2383 0.445312C14.1211 0.5625 14.0625 0.705729 14.0625 0.875V19.625C14.0625 19.7943 14.1211 19.9375 14.2383 20.0547C14.3685 20.1849 14.5182 20.25 14.6875 20.25H19.0625C19.2318 20.25 19.375 20.1849 19.4922 20.0547C19.6224 19.9375 19.6875 19.7943 19.6875 19.625V0.875C19.6875 0.705729 19.6224 0.5625 19.4922 0.445312C19.375 0.315104 19.2318 0.25 19.0625 0.25ZM18.4375 19H15.3125V1.5H18.4375V19Z" fill="white"/>
</svg>
