<svg width="24" height="24" viewBox="0 0 24 24" fill="none" xmlns="http://www.w3.org/2000/svg">
<path d="M9.648 18.052L20.148 7.552L18.496 5.844L9.648 14.72L5.504 10.548L3.852 12.2L9.648 18.052ZM12 0.551999C14.128 0.551999 16.0973 1.084 17.908 2.148C19.6627 3.156 21.044 4.53733 22.052 6.292C23.116 8.10267 23.648 10.072 23.648 12.2C23.648 14.328 23.116 16.2973 22.052 18.108C21.044 19.8627 19.6627 21.244 17.908 22.252C16.0973 23.316 14.128 23.848 12 23.848C9.872 23.848 7.90267 23.316 6.092 22.252C4.33733 21.2253 2.956 19.8347 1.948 18.08C0.884 16.2693 0.352 14.3093 0.352 12.2C0.352 10.0907 0.884 8.13067 1.948 6.32C2.97467 4.56533 4.36533 3.17467 6.12 2.148C7.93067 1.084 9.89067 0.551999 12 0.551999Z" fill="#53B500"/>
</svg>
