<svg width="20" height="21" viewBox="0 0 20 21" fill="none" xmlns="http://www.w3.org/2000/svg">
<path d="M20 11.4414C20 11.2331 19.987 10.8359 19.9609 10.25C19.9349 9.65104 19.9089 9.24089 19.8828 9.01953C19.7396 7.75651 19.388 6.58464 18.8281 5.50391C18.2682 4.42318 17.5521 3.4987 16.6797 2.73047C15.8073 1.94922 14.8047 1.33724 13.6719 0.894531C12.5391 0.451823 11.3346 0.230469 10.0586 0.230469C8.71745 0.230469 7.46094 0.477865 6.28906 0.972656C5.11719 1.45443 4.08203 2.125 3.18359 2.98438C2.29818 3.83073 1.58203 4.83984 1.03516 6.01172C0.488281 7.18359 0.175781 8.44661 0.0976562 9.80078C0.0976562 9.86589 0.0846354 10.0677 0.0585938 10.4062C0.0455729 10.7318 0.0390625 11.0182 0.0390625 11.2656V11.5586C0.0260417 11.6107 0.0130208 11.6693 0 11.7344C0 11.7865 0 11.8451 0 11.9102V16.1094C0 16.5651 0.16276 16.9557 0.488281 17.2812C0.813802 17.6068 1.20443 17.7695 1.66016 17.7695H3.33984C3.80859 17.7695 4.19922 17.6068 4.51172 17.2812C4.83724 16.9557 5 16.5651 5 16.1094V11.9102C5 11.4544 4.83724 11.0638 4.51172 10.7383C4.19922 10.4128 3.80859 10.25 3.33984 10.25H1.66016C1.60807 10.25 1.54948 10.2565 1.48438 10.2695C1.43229 10.2695 1.38021 10.276 1.32812 10.2891C1.32812 10.1849 1.32812 10.1003 1.32812 10.0352C1.34115 9.95703 1.34766 9.90495 1.34766 9.87891C1.41276 8.68099 1.67969 7.57422 2.14844 6.55859C2.63021 5.52995 3.26172 4.64453 4.04297 3.90234C4.82422 3.14714 5.72917 2.55469 6.75781 2.125C7.78646 1.69531 8.88672 1.48047 10.0586 1.48047C11.1784 1.48047 12.2331 1.67578 13.2227 2.06641C14.2122 2.44401 15.0846 2.97786 15.8398 3.66797C16.6081 4.34505 17.2331 5.15234 17.7148 6.08984C18.2096 7.02734 18.5156 8.04948 18.6328 9.15625C18.6458 9.26042 18.6589 9.41667 18.6719 9.625C18.6849 9.83333 18.6979 10.0547 18.7109 10.2891C18.6458 10.276 18.5807 10.2695 18.5156 10.2695C18.4635 10.2565 18.4049 10.25 18.3398 10.25H16.6797C16.2109 10.25 15.8138 10.4128 15.4883 10.7383C15.1758 11.0638 15.0195 11.4544 15.0195 11.9102V16.0898C15.0195 16.4023 15.0977 16.6888 15.2539 16.9492C15.4232 17.1966 15.638 17.3919 15.8984 17.5352L11.875 19.1172V19.0195C11.875 18.8372 11.8099 18.6875 11.6797 18.5703C11.5625 18.4531 11.4193 18.3945 11.25 18.3945H9.375C9.20573 18.3945 9.05599 18.4531 8.92578 18.5703C8.80859 18.6875 8.75 18.8372 8.75 19.0195V19.6445C8.75 19.8138 8.80859 19.957 8.92578 20.0742C9.05599 20.2044 9.20573 20.2695 9.375 20.2695H11.25C11.263 20.2695 11.2695 20.2695 11.2695 20.2695L12.3828 20.25L18.8281 17.7305C18.8672 17.7174 18.9062 17.6979 18.9453 17.6719C18.9844 17.6458 19.0169 17.6133 19.043 17.5742C19.3294 17.444 19.5573 17.2487 19.7266 16.9883C19.9089 16.7148 20 16.4154 20 16.0898V11.9102C20 11.8581 19.9935 11.806 19.9805 11.7539C19.9805 11.7018 19.974 11.6562 19.9609 11.6172C19.974 11.5911 19.9805 11.5651 19.9805 11.5391C19.9935 11.5 20 11.4674 20 11.4414ZM1.66016 11.5H3.33984C3.45703 11.5 3.55469 11.5391 3.63281 11.6172C3.71094 11.6953 3.75 11.793 3.75 11.9102V16.1094C3.75 16.2135 3.71094 16.3112 3.63281 16.4023C3.55469 16.4805 3.45703 16.5195 3.33984 16.5195H1.66016C1.54297 16.5195 1.44531 16.4805 1.36719 16.4023C1.28906 16.3112 1.25 16.2135 1.25 16.1094V11.9102C1.25 11.793 1.28906 11.6953 1.36719 11.6172C1.44531 11.5391 1.54297 11.5 1.66016 11.5ZM16.2695 11.9102C16.2695 11.793 16.3086 11.6953 16.3867 11.6172C16.4648 11.5391 16.5625 11.5 16.6797 11.5H18.3398C18.457 11.5 18.5547 11.5391 18.6328 11.6172C18.7109 11.6953 18.75 11.793 18.75 11.9102V16.0898C18.75 16.194 18.7109 16.2917 18.6328 16.3828C18.5547 16.4609 18.457 16.5 18.3398 16.5H16.6797C16.5625 16.5 16.4648 16.4609 16.3867 16.3828C16.3086 16.2917 16.2695 16.194 16.2695 16.0898V11.9102Z" fill="white"/>
</svg>
