<svg width="14" height="15" viewBox="0 0 14 15" fill="none" xmlns="http://www.w3.org/2000/svg">
<path d="M12.238 0.95C12.646 0.95 13 1.1 13.3 1.4C13.6 1.7 13.75 2.054 13.75 2.462V12.938C13.75 13.346 13.6 13.7 13.3 14C13 14.3 12.646 14.45 12.238 14.45H1.762C1.342 14.45 0.982 14.3 0.682 14C0.394 13.7 0.25 13.346 0.25 12.938V9.95H1.762V12.938H12.238V2.462H1.762V5.45H0.25V2.462C0.25 2.054 0.394 1.7 0.682 1.4C0.982 1.1 1.342 0.95 1.762 0.95H12.238ZM5.56 10.4L7.486 8.438H0.25V6.962H7.486L5.56 5L6.622 3.938L10.384 7.7L6.622 11.462L5.56 10.4Z" fill="#054BFF"/>
</svg>
