<svg width="16" height="19" viewBox="0 0 16 19" fill="none" xmlns="http://www.w3.org/2000/svg">
<path d="M10.9531 1.79492C10.25 1.79492 9.64648 1.70703 9.14258 1.53125C8.65039 1.35547 8.1582 1.16211 7.66602 0.951172C7.17383 0.740234 6.63477 0.546875 6.04883 0.371094C5.46289 0.195312 4.72461 0.107422 3.83398 0.107422C2.68555 0.107422 1.77734 0.400391 1.10938 0.986328C0.453125 1.56055 0.125 1.84766 0.125 1.84766V17.5801C0.125 17.7324 0.177734 17.8613 0.283203 17.9668C0.400391 18.084 0.535156 18.1426 0.6875 18.1426C0.839844 18.1426 0.96875 18.084 1.07422 17.9668C1.19141 17.8613 1.25 17.7324 1.25 17.5801V10.4082C1.54297 10.209 1.89453 10.0391 2.30469 9.89844C2.71484 9.74609 3.17773 9.66992 3.69336 9.66992C4.58398 9.66992 5.33398 9.75781 5.94336 9.93359C6.56445 10.1094 7.13867 10.3027 7.66602 10.5137C8.19336 10.7246 8.7207 10.918 9.24805 11.0938C9.77539 11.2695 10.3906 11.3574 11.0938 11.3574C11.7969 11.3574 12.4414 11.2695 13.0273 11.0938C13.6133 10.918 14.1172 10.7246 14.5391 10.5137C14.9609 10.3027 15.2891 10.1094 15.5234 9.93359C15.7578 9.75781 15.875 9.66992 15.875 9.66992V0.107422C15.875 0.107422 15.752 0.195312 15.5059 0.371094C15.2598 0.546875 14.9141 0.740234 14.4688 0.951172C14.0352 1.16211 13.5137 1.35547 12.9043 1.53125C12.3066 1.70703 11.6562 1.79492 10.9531 1.79492ZM14.75 9.10742C14.4336 9.30664 13.9531 9.54688 13.3086 9.82812C12.6641 10.0977 11.9258 10.2324 11.0938 10.2324C10.543 10.2324 10.0566 10.168 9.63477 10.0391C9.21289 9.91016 8.76172 9.74609 8.28125 9.54688C7.69531 9.3125 7.04492 9.08984 6.33008 8.87891C5.61523 8.65625 4.73633 8.54492 3.69336 8.54492C3.21289 8.54492 2.76758 8.60352 2.35742 8.7207C1.94727 8.82617 1.57812 8.95508 1.25 9.10742V2.30469C1.46094 2.11719 1.78906 1.89453 2.23438 1.63672C2.67969 1.36719 3.21289 1.23242 3.83398 1.23242C4.6543 1.23242 5.32812 1.32031 5.85547 1.49609C6.39453 1.66016 6.91016 1.84766 7.40234 2.05859C7.89453 2.26953 8.41602 2.46875 8.9668 2.65625C9.51758 2.83203 10.1797 2.91992 10.9531 2.91992C11.7031 2.91992 12.4004 2.83203 13.0449 2.65625C13.6895 2.48047 14.2578 2.28125 14.75 2.05859V9.10742Z" fill="#F56BAA"/>
</svg>
