<svg width="20" height="21" viewBox="0 0 20 21" fill="none" xmlns="http://www.w3.org/2000/svg">
<path d="M10 0.25C8.61979 0.25 7.31771 0.510417 6.09375 1.03125C4.88281 1.55208 3.82161 2.26823 2.91016 3.17969C2.01172 4.07812 1.30208 5.13932 0.78125 6.36328C0.260417 7.57422 0 8.86979 0 10.25C0 11.6302 0.260417 12.9323 0.78125 14.1562C1.30208 15.3672 2.01172 16.4284 2.91016 17.3398C3.82161 18.2383 4.88281 18.9479 6.09375 19.4688C7.31771 19.9896 8.61979 20.25 10 20.25C11.3802 20.25 12.6758 19.9896 13.8867 19.4688C15.1107 18.9479 16.1719 18.2383 17.0703 17.3398C17.9818 16.4284 18.6979 15.3672 19.2188 14.1562C19.7396 12.9323 20 11.6302 20 10.25C20 8.86979 19.7396 7.57422 19.2188 6.36328C18.6979 5.13932 17.9818 4.07812 17.0703 3.17969C16.1719 2.26823 15.1107 1.55208 13.8867 1.03125C12.6758 0.510417 11.3802 0.25 10 0.25ZM10 19.0195C8.78906 19.0195 7.64974 18.7917 6.58203 18.3359C5.52734 17.8672 4.60286 17.2357 3.80859 16.4414C3.02734 15.6471 2.40234 14.7227 1.93359 13.668C1.47786 12.6003 1.25 11.4609 1.25 10.25C1.25 9.03906 1.47786 7.90625 1.93359 6.85156C2.40234 5.78385 3.02734 4.85938 3.80859 4.07812C4.60286 3.28385 5.52734 2.65885 6.58203 2.20312C7.64974 1.73438 8.78906 1.5 10 1.5C11.2109 1.5 12.3438 1.73438 13.3984 2.20312C14.4661 2.65885 15.3906 3.28385 16.1719 4.07812C16.9661 4.85938 17.5911 5.78385 18.0469 6.85156C18.5156 7.90625 18.75 9.03906 18.75 10.25C18.75 11.4609 18.5156 12.6003 18.0469 13.668C17.5911 14.7227 16.9661 15.6471 16.1719 16.4414C15.3906 17.2357 14.4661 17.8672 13.3984 18.3359C12.3438 18.7917 11.2109 19.0195 10 19.0195ZM9.08203 15.875H10.6445V14.293H9.08203V15.875ZM9.98047 4.625C9.52474 4.625 9.10807 4.68359 8.73047 4.80078C8.35286 4.91797 8.01432 5.10026 7.71484 5.34766C7.41536 5.59505 7.19401 5.9401 7.05078 6.38281C6.90755 6.82552 6.84245 7.2487 6.85547 7.65234L6.875 7.71094H8.32031C8.32031 7.46354 8.35938 7.1901 8.4375 6.89062C8.51562 6.59115 8.63932 6.38281 8.80859 6.26562C8.96484 6.13542 9.14062 6.03776 9.33594 5.97266C9.53125 5.90755 9.74609 5.875 9.98047 5.875C10.2539 5.875 10.4883 5.91406 10.6836 5.99219C10.8919 6.07031 11.0677 6.18099 11.2109 6.32422C11.3542 6.46745 11.4583 6.64323 11.5234 6.85156C11.6016 7.0599 11.6406 7.29427 11.6406 7.55469C11.6406 7.78906 11.6146 8.00391 11.5625 8.19922C11.5104 8.38151 11.4323 8.55729 11.3281 8.72656C11.224 8.88281 11.0807 9.07812 10.8984 9.3125C10.7161 9.53385 10.5013 9.79427 10.2539 10.0938C9.99349 10.3281 9.77865 10.543 9.60938 10.7383C9.45312 10.9206 9.34896 11.0833 9.29688 11.2266C9.23177 11.3698 9.17969 11.5716 9.14062 11.832C9.11458 12.0794 9.10156 12.3854 9.10156 12.75H10.6055C10.6055 12.5286 10.612 12.3333 10.625 12.1641C10.638 11.9818 10.6576 11.8385 10.6836 11.7344C10.7096 11.6302 10.7617 11.5195 10.8398 11.4023C10.931 11.2721 11.0482 11.1354 11.1914 10.9922C11.4779 10.7057 11.7383 10.4258 11.9727 10.1523C12.2201 9.86589 12.4349 9.59245 12.6172 9.33203C12.7865 9.05859 12.9167 8.77214 13.0078 8.47266C13.099 8.17318 13.1445 7.85417 13.1445 7.51562C13.1445 7.0599 13.0729 6.65625 12.9297 6.30469C12.7995 5.9401 12.5977 5.63411 12.3242 5.38672C12.0378 5.1263 11.6992 4.9375 11.3086 4.82031C10.931 4.6901 10.4883 4.625 9.98047 4.625Z" fill="white"/>
</svg>
